solid OpenSCAD_Model
  facet normal 0 -1 2.22045e-16
    outer loop
      vertex -167.884 -174 0.957263
      vertex -167.884 -174 -0.957263
      vertex -166.994 -174 -2.65249
    endloop
  endfacet
  facet normal 0 -1 2.22045e-16
    outer loop
      vertex -163.518 -174 -3.97083
      vertex -167.884 -174 0.957263
      vertex -165.418 -174 -3.74006
    endloop
  endfacet
  facet normal 0 -1 2.22045e-16
    outer loop
      vertex -165.418 -174 -3.74006
      vertex -167.884 -174 0.957263
      vertex -166.994 -174 -2.65249
    endloop
  endfacet
  facet normal 0 -1 2.22045e-16
    outer loop
      vertex -161.728 -174 -3.29193
      vertex -167.884 -174 0.957263
      vertex -163.518 -174 -3.97083
    endloop
  endfacet
  facet normal 0 -1 2.22045e-16
    outer loop
      vertex -160.458 -174 -1.85889
      vertex -167.884 -174 0.957263
      vertex -161.728 -174 -3.29193
    endloop
  endfacet
  facet normal 0 -1 2.22045e-16
    outer loop
      vertex -160 -174 3.86358e-14
      vertex -167.884 -174 0.957263
      vertex -160.458 -174 -1.85889
    endloop
  endfacet
  facet normal 0 -1 2.22045e-16
    outer loop
      vertex -160.458 -174 1.85889
      vertex -167.884 -174 0.957263
      vertex -160 -174 3.86358e-14
    endloop
  endfacet
  facet normal 0 -1 2.22045e-16
    outer loop
      vertex -161.728 -174 3.29194
      vertex -167.884 -174 0.957263
      vertex -160.458 -174 1.85889
    endloop
  endfacet
  facet normal 0 -1 2.22045e-16
    outer loop
      vertex -163.518 -174 3.97084
      vertex -167.884 -174 0.957263
      vertex -161.728 -174 3.29194
    endloop
  endfacet
  facet normal 0 -1 2.22045e-16
    outer loop
      vertex -165.418 -174 3.74007
      vertex -167.884 -174 0.957263
      vertex -163.518 -174 3.97084
    endloop
  endfacet
  facet normal 0 -1 2.22045e-16
    outer loop
      vertex -166.994 -174 2.65249
      vertex -167.884 -174 0.957263
      vertex -165.418 -174 3.74007
    endloop
  endfacet
  facet normal -0.885456 -1.03189e-16 -0.464723
    outer loop
      vertex -167.884 -174 -0.957263
      vertex -167.884 174 -0.957263
      vertex -166.994 -174 -2.65249
    endloop
  endfacet
  facet normal -0.885456 -1.03189e-16 -0.464723
    outer loop
      vertex -166.994 -174 -2.65249
      vertex -167.884 174 -0.957263
      vertex -166.994 174 -2.65249
    endloop
  endfacet
  facet normal -1 0 0
    outer loop
      vertex -167.884 -174 -0.957263
      vertex -167.884 -174 0.957263
      vertex -167.884 174 -0.957263
    endloop
  endfacet
  facet normal -1 0 0
    outer loop
      vertex -167.884 174 -0.957263
      vertex -167.884 -174 0.957263
      vertex -167.884 174 0.957263
    endloop
  endfacet
  facet normal -0.885456 1.03189e-16 0.464723
    outer loop
      vertex -167.884 -174 0.957263
      vertex -166.994 -174 2.65249
      vertex -167.884 174 0.957263
    endloop
  endfacet
  facet normal -0.885456 1.03189e-16 0.464723
    outer loop
      vertex -167.884 174 0.957263
      vertex -166.994 -174 2.65249
      vertex -166.994 174 2.65249
    endloop
  endfacet
  facet normal -0.568065 1.82739e-16 0.822984
    outer loop
      vertex -166.994 174 2.65249
      vertex -166.994 -174 2.65249
      vertex -165.418 -174 3.74007
    endloop
  endfacet
  facet normal -0.568065 1.82739e-16 0.822984
    outer loop
      vertex -165.418 174 3.74006
      vertex -166.994 174 2.65249
      vertex -165.418 -174 3.74007
    endloop
  endfacet
  facet normal -0.120536 2.20426e-16 0.992709
    outer loop
      vertex -165.418 174 3.74006
      vertex -165.418 -174 3.74007
      vertex -163.518 -174 3.97084
    endloop
  endfacet
  facet normal -0.120536 2.20426e-16 0.992709
    outer loop
      vertex -163.518 174 3.97083
      vertex -165.418 174 3.74006
      vertex -163.518 -174 3.97084
    endloop
  endfacet
  facet normal 0.354605 2.07615e-16 0.935016
    outer loop
      vertex -163.518 174 3.97083
      vertex -163.518 -174 3.97084
      vertex -161.728 -174 3.29194
    endloop
  endfacet
  facet normal 0.354605 2.07615e-16 0.935016
    outer loop
      vertex -161.728 174 3.29193
      vertex -163.518 174 3.97083
      vertex -161.728 -174 3.29194
    endloop
  endfacet
  facet normal 0.748511 1.47243e-16 0.663123
    outer loop
      vertex -161.728 174 3.29193
      vertex -161.728 -174 3.29194
      vertex -160.458 -174 1.85889
    endloop
  endfacet
  facet normal 0.748511 1.47243e-16 0.663123
    outer loop
      vertex -160.458 174 1.85889
      vertex -161.728 174 3.29193
      vertex -160.458 -174 1.85889
    endloop
  endfacet
  facet normal 0.970942 5.31388e-17 0.239316
    outer loop
      vertex -160.458 174 1.85889
      vertex -160.458 -174 1.85889
      vertex -160 -174 3.86358e-14
    endloop
  endfacet
  facet normal 0.970942 5.31388e-17 0.239316
    outer loop
      vertex -160 174 -3.86358e-14
      vertex -160.458 174 1.85889
      vertex -160 -174 3.86358e-14
    endloop
  endfacet
  facet normal 0.970942 -5.31388e-17 -0.239316
    outer loop
      vertex -160 -174 3.86358e-14
      vertex -160.458 -174 -1.85889
      vertex -160.458 174 -1.85889
    endloop
  endfacet
  facet normal 0.970942 -5.31388e-17 -0.239316
    outer loop
      vertex -160 174 -3.86358e-14
      vertex -160 -174 3.86358e-14
      vertex -160.458 174 -1.85889
    endloop
  endfacet
  facet normal 0.748511 -1.47243e-16 -0.663123
    outer loop
      vertex -160.458 -174 -1.85889
      vertex -161.728 -174 -3.29193
      vertex -161.728 174 -3.29194
    endloop
  endfacet
  facet normal 0.748511 -1.47243e-16 -0.663123
    outer loop
      vertex -160.458 174 -1.85889
      vertex -160.458 -174 -1.85889
      vertex -161.728 174 -3.29194
    endloop
  endfacet
  facet normal 0.354605 -2.07615e-16 -0.935016
    outer loop
      vertex -163.518 -174 -3.97083
      vertex -163.518 174 -3.97084
      vertex -161.728 -174 -3.29193
    endloop
  endfacet
  facet normal 0.354605 -2.07615e-16 -0.935016
    outer loop
      vertex -161.728 -174 -3.29193
      vertex -163.518 174 -3.97084
      vertex -161.728 174 -3.29194
    endloop
  endfacet
  facet normal -0.120536 -2.20426e-16 -0.992709
    outer loop
      vertex -165.418 -174 -3.74006
      vertex -165.418 174 -3.74007
      vertex -163.518 -174 -3.97083
    endloop
  endfacet
  facet normal -0.120536 -2.20426e-16 -0.992709
    outer loop
      vertex -163.518 -174 -3.97083
      vertex -165.418 174 -3.74007
      vertex -163.518 174 -3.97084
    endloop
  endfacet
  facet normal -0.568065 -1.82739e-16 -0.822984
    outer loop
      vertex -166.994 -174 -2.65249
      vertex -166.994 174 -2.65249
      vertex -165.418 -174 -3.74006
    endloop
  endfacet
  facet normal -0.568065 -1.82739e-16 -0.822984
    outer loop
      vertex -165.418 -174 -3.74006
      vertex -166.994 174 -2.65249
      vertex -165.418 174 -3.74007
    endloop
  endfacet
  facet normal 0 1 -2.22045e-16
    outer loop
      vertex -167.884 174 -0.957263
      vertex -167.884 174 0.957263
      vertex -166.994 174 -2.65249
    endloop
  endfacet
  facet normal 0 1 -2.22045e-16
    outer loop
      vertex -166.994 174 -2.65249
      vertex -167.884 174 0.957263
      vertex -166.994 174 2.65249
    endloop
  endfacet
  facet normal 0 1 -2.22045e-16
    outer loop
      vertex -166.994 174 -2.65249
      vertex -166.994 174 2.65249
      vertex -165.418 174 3.74006
    endloop
  endfacet
  facet normal 0 1 -2.22045e-16
    outer loop
      vertex -166.994 174 -2.65249
      vertex -165.418 174 3.74006
      vertex -163.518 174 3.97083
    endloop
  endfacet
  facet normal 0 1 -2.22045e-16
    outer loop
      vertex -166.994 174 -2.65249
      vertex -163.518 174 3.97083
      vertex -161.728 174 3.29193
    endloop
  endfacet
  facet normal 0 1 -2.22045e-16
    outer loop
      vertex -166.994 174 -2.65249
      vertex -161.728 174 3.29193
      vertex -160.458 174 1.85889
    endloop
  endfacet
  facet normal 0 1 -2.22045e-16
    outer loop
      vertex -166.994 174 -2.65249
      vertex -160.458 174 1.85889
      vertex -160 174 -3.86358e-14
    endloop
  endfacet
  facet normal 0 1 -2.22045e-16
    outer loop
      vertex -166.994 174 -2.65249
      vertex -160 174 -3.86358e-14
      vertex -160.458 174 -1.85889
    endloop
  endfacet
  facet normal 0 1 -2.22045e-16
    outer loop
      vertex -166.994 174 -2.65249
      vertex -160.458 174 -1.85889
      vertex -161.728 174 -3.29194
    endloop
  endfacet
  facet normal 0 1 -2.22045e-16
    outer loop
      vertex -166.994 174 -2.65249
      vertex -161.728 174 -3.29194
      vertex -163.518 174 -3.97084
    endloop
  endfacet
  facet normal 0 1 -2.22045e-16
    outer loop
      vertex -166.994 174 -2.65249
      vertex -163.518 174 -3.97084
      vertex -165.418 174 -3.74007
    endloop
  endfacet
  facet normal 0 -1 2.22045e-16
    outer loop
      vertex 160.116 -174 0.957263
      vertex 160.116 -174 -0.957263
      vertex 161.006 -174 -2.65249
    endloop
  endfacet
  facet normal 0 -1 2.22045e-16
    outer loop
      vertex 164.482 -174 -3.97083
      vertex 160.116 -174 0.957263
      vertex 162.582 -174 -3.74006
    endloop
  endfacet
  facet normal 0 -1 2.22045e-16
    outer loop
      vertex 162.582 -174 -3.74006
      vertex 160.116 -174 0.957263
      vertex 161.006 -174 -2.65249
    endloop
  endfacet
  facet normal 0 -1 2.22045e-16
    outer loop
      vertex 166.272 -174 -3.29193
      vertex 160.116 -174 0.957263
      vertex 164.482 -174 -3.97083
    endloop
  endfacet
  facet normal 0 -1 2.22045e-16
    outer loop
      vertex 167.542 -174 -1.85889
      vertex 160.116 -174 0.957263
      vertex 166.272 -174 -3.29193
    endloop
  endfacet
  facet normal 0 -1 2.22045e-16
    outer loop
      vertex 168 -174 3.86358e-14
      vertex 160.116 -174 0.957263
      vertex 167.542 -174 -1.85889
    endloop
  endfacet
  facet normal 0 -1 2.22045e-16
    outer loop
      vertex 167.542 -174 1.85889
      vertex 160.116 -174 0.957263
      vertex 168 -174 3.86358e-14
    endloop
  endfacet
  facet normal 0 -1 2.22045e-16
    outer loop
      vertex 166.272 -174 3.29194
      vertex 160.116 -174 0.957263
      vertex 167.542 -174 1.85889
    endloop
  endfacet
  facet normal 0 -1 2.22045e-16
    outer loop
      vertex 164.482 -174 3.97084
      vertex 160.116 -174 0.957263
      vertex 166.272 -174 3.29194
    endloop
  endfacet
  facet normal 0 -1 2.22045e-16
    outer loop
      vertex 162.582 -174 3.74007
      vertex 160.116 -174 0.957263
      vertex 164.482 -174 3.97084
    endloop
  endfacet
  facet normal 0 -1 2.22045e-16
    outer loop
      vertex 161.006 -174 2.65249
      vertex 160.116 -174 0.957263
      vertex 162.582 -174 3.74007
    endloop
  endfacet
  facet normal -0.885456 -1.03189e-16 -0.464723
    outer loop
      vertex 160.116 -174 -0.957263
      vertex 160.116 174 -0.957263
      vertex 161.006 -174 -2.65249
    endloop
  endfacet
  facet normal -0.885456 -1.03189e-16 -0.464723
    outer loop
      vertex 161.006 -174 -2.65249
      vertex 160.116 174 -0.957263
      vertex 161.006 174 -2.65249
    endloop
  endfacet
  facet normal -1 0 0
    outer loop
      vertex 160.116 -174 -0.957263
      vertex 160.116 -174 0.957263
      vertex 160.116 174 -0.957263
    endloop
  endfacet
  facet normal -1 0 0
    outer loop
      vertex 160.116 174 -0.957263
      vertex 160.116 -174 0.957263
      vertex 160.116 174 0.957263
    endloop
  endfacet
  facet normal -0.885456 1.03189e-16 0.464723
    outer loop
      vertex 160.116 -174 0.957263
      vertex 161.006 -174 2.65249
      vertex 160.116 174 0.957263
    endloop
  endfacet
  facet normal -0.885456 1.03189e-16 0.464723
    outer loop
      vertex 160.116 174 0.957263
      vertex 161.006 -174 2.65249
      vertex 161.006 174 2.65249
    endloop
  endfacet
  facet normal -0.568065 1.82739e-16 0.822984
    outer loop
      vertex 161.006 174 2.65249
      vertex 161.006 -174 2.65249
      vertex 162.582 -174 3.74007
    endloop
  endfacet
  facet normal -0.568065 1.82739e-16 0.822984
    outer loop
      vertex 162.582 174 3.74006
      vertex 161.006 174 2.65249
      vertex 162.582 -174 3.74007
    endloop
  endfacet
  facet normal -0.120536 2.20426e-16 0.992709
    outer loop
      vertex 162.582 174 3.74006
      vertex 162.582 -174 3.74007
      vertex 164.482 -174 3.97084
    endloop
  endfacet
  facet normal -0.120536 2.20426e-16 0.992709
    outer loop
      vertex 164.482 174 3.97083
      vertex 162.582 174 3.74006
      vertex 164.482 -174 3.97084
    endloop
  endfacet
  facet normal 0.354605 2.07615e-16 0.935016
    outer loop
      vertex 164.482 174 3.97083
      vertex 164.482 -174 3.97084
      vertex 166.272 -174 3.29194
    endloop
  endfacet
  facet normal 0.354605 2.07615e-16 0.935016
    outer loop
      vertex 166.272 174 3.29193
      vertex 164.482 174 3.97083
      vertex 166.272 -174 3.29194
    endloop
  endfacet
  facet normal 0.748511 1.47243e-16 0.663123
    outer loop
      vertex 166.272 174 3.29193
      vertex 166.272 -174 3.29194
      vertex 167.542 -174 1.85889
    endloop
  endfacet
  facet normal 0.748511 1.47243e-16 0.663123
    outer loop
      vertex 167.542 174 1.85889
      vertex 166.272 174 3.29193
      vertex 167.542 -174 1.85889
    endloop
  endfacet
  facet normal 0.970942 5.31388e-17 0.239316
    outer loop
      vertex 167.542 174 1.85889
      vertex 167.542 -174 1.85889
      vertex 168 -174 3.86358e-14
    endloop
  endfacet
  facet normal 0.970942 5.31388e-17 0.239316
    outer loop
      vertex 168 174 -3.86358e-14
      vertex 167.542 174 1.85889
      vertex 168 -174 3.86358e-14
    endloop
  endfacet
  facet normal 0.970942 -5.31388e-17 -0.239316
    outer loop
      vertex 168 -174 3.86358e-14
      vertex 167.542 -174 -1.85889
      vertex 167.542 174 -1.85889
    endloop
  endfacet
  facet normal 0.970942 -5.31388e-17 -0.239316
    outer loop
      vertex 168 174 -3.86358e-14
      vertex 168 -174 3.86358e-14
      vertex 167.542 174 -1.85889
    endloop
  endfacet
  facet normal 0.748511 -1.47243e-16 -0.663123
    outer loop
      vertex 167.542 -174 -1.85889
      vertex 166.272 -174 -3.29193
      vertex 166.272 174 -3.29194
    endloop
  endfacet
  facet normal 0.748511 -1.47243e-16 -0.663123
    outer loop
      vertex 167.542 174 -1.85889
      vertex 167.542 -174 -1.85889
      vertex 166.272 174 -3.29194
    endloop
  endfacet
  facet normal 0.354605 -2.07615e-16 -0.935016
    outer loop
      vertex 164.482 -174 -3.97083
      vertex 164.482 174 -3.97084
      vertex 166.272 -174 -3.29193
    endloop
  endfacet
  facet normal 0.354605 -2.07615e-16 -0.935016
    outer loop
      vertex 166.272 -174 -3.29193
      vertex 164.482 174 -3.97084
      vertex 166.272 174 -3.29194
    endloop
  endfacet
  facet normal -0.120536 -2.20426e-16 -0.992709
    outer loop
      vertex 162.582 -174 -3.74006
      vertex 162.582 174 -3.74007
      vertex 164.482 -174 -3.97083
    endloop
  endfacet
  facet normal -0.120536 -2.20426e-16 -0.992709
    outer loop
      vertex 164.482 -174 -3.97083
      vertex 162.582 174 -3.74007
      vertex 164.482 174 -3.97084
    endloop
  endfacet
  facet normal -0.568065 -1.82739e-16 -0.822984
    outer loop
      vertex 161.006 -174 -2.65249
      vertex 161.006 174 -2.65249
      vertex 162.582 -174 -3.74006
    endloop
  endfacet
  facet normal -0.568065 -1.82739e-16 -0.822984
    outer loop
      vertex 162.582 -174 -3.74006
      vertex 161.006 174 -2.65249
      vertex 162.582 174 -3.74007
    endloop
  endfacet
  facet normal 0 1 -2.22045e-16
    outer loop
      vertex 160.116 174 -0.957263
      vertex 160.116 174 0.957263
      vertex 161.006 174 -2.65249
    endloop
  endfacet
  facet normal 0 1 -2.22045e-16
    outer loop
      vertex 161.006 174 -2.65249
      vertex 160.116 174 0.957263
      vertex 161.006 174 2.65249
    endloop
  endfacet
  facet normal 0 1 -2.22045e-16
    outer loop
      vertex 161.006 174 -2.65249
      vertex 161.006 174 2.65249
      vertex 162.582 174 3.74006
    endloop
  endfacet
  facet normal 0 1 -2.22045e-16
    outer loop
      vertex 161.006 174 -2.65249
      vertex 162.582 174 3.74006
      vertex 164.482 174 3.97083
    endloop
  endfacet
  facet normal 0 1 -2.22045e-16
    outer loop
      vertex 161.006 174 -2.65249
      vertex 164.482 174 3.97083
      vertex 166.272 174 3.29193
    endloop
  endfacet
  facet normal 0 1 -2.22045e-16
    outer loop
      vertex 161.006 174 -2.65249
      vertex 166.272 174 3.29193
      vertex 167.542 174 1.85889
    endloop
  endfacet
  facet normal 0 1 -2.22045e-16
    outer loop
      vertex 161.006 174 -2.65249
      vertex 167.542 174 1.85889
      vertex 168 174 -3.86358e-14
    endloop
  endfacet
  facet normal 0 1 -2.22045e-16
    outer loop
      vertex 161.006 174 -2.65249
      vertex 168 174 -3.86358e-14
      vertex 167.542 174 -1.85889
    endloop
  endfacet
  facet normal 0 1 -2.22045e-16
    outer loop
      vertex 161.006 174 -2.65249
      vertex 167.542 174 -1.85889
      vertex 166.272 174 -3.29194
    endloop
  endfacet
  facet normal 0 1 -2.22045e-16
    outer loop
      vertex 161.006 174 -2.65249
      vertex 166.272 174 -3.29194
      vertex 164.482 174 -3.97084
    endloop
  endfacet
  facet normal 0 1 -2.22045e-16
    outer loop
      vertex 161.006 174 -2.65249
      vertex 164.482 174 -3.97084
      vertex 162.582 174 -3.74007
    endloop
  endfacet
  facet normal -1 0 0
    outer loop
      vertex -174 -27 -25
      vertex -174 -27 10
      vertex -174 27 -25
    endloop
  endfacet
  facet normal -1 0 0
    outer loop
      vertex -174 27 -25
      vertex -174 -27 10
      vertex -174 27 10
    endloop
  endfacet
  facet normal 0 -1 0
    outer loop
      vertex -168.584 -27 -5.29025
      vertex -174 -27 -25
      vertex -154 -27 -25
    endloop
  endfacet
  facet normal 0 -1 0
    outer loop
      vertex -174 -27 10
      vertex -174 -27 -25
      vertex -170.716 -27 -1.97213
    endloop
  endfacet
  facet normal 0 -1 0
    outer loop
      vertex -166.908 -27 -6.36742
      vertex -168.584 -27 -5.29025
      vertex -154 -27 -25
    endloop
  endfacet
  facet normal 0 -1 0
    outer loop
      vertex -174 -27 10
      vertex -170.716 -27 -1.97213
      vertex -171 -27 5.9952e-15
    endloop
  endfacet
  facet normal 0 -1 0
    outer loop
      vertex -174 -27 10
      vertex -171 -27 5.9952e-15
      vertex -170.716 -27 1.97213
    endloop
  endfacet
  facet normal 0 -1 0
    outer loop
      vertex -168.584 -27 5.29025
      vertex -174 -27 10
      vertex -169.889 -27 3.78449
    endloop
  endfacet
  facet normal 0 -1 0
    outer loop
      vertex -166.908 -27 6.36742
      vertex -174 -27 10
      vertex -168.584 -27 5.29025
    endloop
  endfacet
  facet normal 0 -1 0
    outer loop
      vertex -163.004 -27 6.92875
      vertex -161.092 -27 6.36742
      vertex -154 -27 10
    endloop
  endfacet
  facet normal 0 -1 0
    outer loop
      vertex -164.996 -27 6.92875
      vertex -174 -27 10
      vertex -166.908 -27 6.36742
    endloop
  endfacet
  facet normal 0 -1 0
    outer loop
      vertex -157.284 -27 -1.97213
      vertex -158.111 -27 -3.78449
      vertex -154 -27 -25
    endloop
  endfacet
  facet normal 0 -1 0
    outer loop
      vertex -154 -27 10
      vertex -174 -27 10
      vertex -164.996 -27 6.92875
    endloop
  endfacet
  facet normal 0 -1 0
    outer loop
      vertex -157 -27 5.9952e-15
      vertex -157.284 -27 -1.97213
      vertex -154 -27 -25
    endloop
  endfacet
  facet normal 0 -1 0
    outer loop
      vertex -163.004 -27 -6.92875
      vertex -164.996 -27 -6.92875
      vertex -154 -27 -25
    endloop
  endfacet
  facet normal 0 -1 0
    outer loop
      vertex -158.111 -27 -3.78449
      vertex -159.416 -27 -5.29025
      vertex -154 -27 -25
    endloop
  endfacet
  facet normal 0 -1 0
    outer loop
      vertex -154 -27 10
      vertex -161.092 -27 6.36742
      vertex -159.416 -27 5.29025
    endloop
  endfacet
  facet normal 0 -1 0
    outer loop
      vertex -164.996 -27 -6.92875
      vertex -166.908 -27 -6.36742
      vertex -154 -27 -25
    endloop
  endfacet
  facet normal 0 -1 0
    outer loop
      vertex -154 -27 10
      vertex -159.416 -27 5.29025
      vertex -158.111 -27 3.78449
    endloop
  endfacet
  facet normal 0 -1 0
    outer loop
      vertex -154 -27 10
      vertex -158.111 -27 3.78449
      vertex -157.284 -27 1.97213
    endloop
  endfacet
  facet normal 0 -1 0
    outer loop
      vertex -154 -27 10
      vertex -157 -27 5.9952e-15
      vertex -154 -27 -25
    endloop
  endfacet
  facet normal 0 -1 0
    outer loop
      vertex -154 -27 10
      vertex -157.284 -27 1.97213
      vertex -157 -27 5.9952e-15
    endloop
  endfacet
  facet normal 0 -1 0
    outer loop
      vertex -159.416 -27 -5.29025
      vertex -161.092 -27 -6.36742
      vertex -154 -27 -25
    endloop
  endfacet
  facet normal 0 -1 0
    outer loop
      vertex -161.092 -27 -6.36742
      vertex -163.004 -27 -6.92875
      vertex -154 -27 -25
    endloop
  endfacet
  facet normal 0 -1 0
    outer loop
      vertex -164.996 -27 6.92875
      vertex -163.004 -27 6.92875
      vertex -154 -27 10
    endloop
  endfacet
  facet normal 0 -1 0
    outer loop
      vertex -169.889 -27 -3.78449
      vertex -174 -27 -25
      vertex -168.584 -27 -5.29025
    endloop
  endfacet
  facet normal 0 -1 0
    outer loop
      vertex -170.716 -27 -1.97213
      vertex -174 -27 -25
      vertex -169.889 -27 -3.78449
    endloop
  endfacet
  facet normal 0 -1 0
    outer loop
      vertex -170.716 -27 1.97213
      vertex -169.889 -27 3.78449
      vertex -174 -27 10
    endloop
  endfacet
  facet normal 0 0 -1
    outer loop
      vertex -174 -27 -25
      vertex -174 27 -25
      vertex -154 -27 -25
    endloop
  endfacet
  facet normal 0 0 -1
    outer loop
      vertex -154 -27 -25
      vertex -174 27 -25
      vertex -154 27 -25
    endloop
  endfacet
  facet normal 0 1 0
    outer loop
      vertex -163.004 27 6.92875
      vertex -174 27 10
      vertex -154 27 10
    endloop
  endfacet
  facet normal 0 1 0
    outer loop
      vertex -174 27 -25
      vertex -174 27 10
      vertex -171 27 -5.9952e-15
    endloop
  endfacet
  facet normal 0 1 0
    outer loop
      vertex -174 27 -25
      vertex -171 27 -5.9952e-15
      vertex -170.716 27 -1.97213
    endloop
  endfacet
  facet normal 0 1 0
    outer loop
      vertex -174 27 -25
      vertex -170.716 27 -1.97213
      vertex -169.889 27 -3.78449
    endloop
  endfacet
  facet normal 0 1 0
    outer loop
      vertex -174 27 -25
      vertex -169.889 27 -3.78449
      vertex -154 27 -25
    endloop
  endfacet
  facet normal 0 1 0
    outer loop
      vertex -169.889 27 -3.78449
      vertex -168.584 27 -5.29025
      vertex -154 27 -25
    endloop
  endfacet
  facet normal 0 1 0
    outer loop
      vertex -164.996 27 -6.92875
      vertex -154 27 -25
      vertex -166.908 27 -6.36742
    endloop
  endfacet
  facet normal 0 1 0
    outer loop
      vertex -163.004 27 -6.92875
      vertex -154 27 -25
      vertex -164.996 27 -6.92875
    endloop
  endfacet
  facet normal 0 1 0
    outer loop
      vertex -157 27 -5.9952e-15
      vertex -154 27 10
      vertex -157.284 27 -1.97213
    endloop
  endfacet
  facet normal 0 1 0
    outer loop
      vertex -154 27 -25
      vertex -163.004 27 -6.92875
      vertex -161.092 27 -6.36742
    endloop
  endfacet
  facet normal 0 1 0
    outer loop
      vertex -154 27 -25
      vertex -161.092 27 -6.36742
      vertex -159.416 27 -5.29025
    endloop
  endfacet
  facet normal 0 1 0
    outer loop
      vertex -154 27 -25
      vertex -159.416 27 -5.29025
      vertex -158.111 27 -3.78449
    endloop
  endfacet
  facet normal 0 1 0
    outer loop
      vertex -154 27 -25
      vertex -158.111 27 -3.78449
      vertex -157.284 27 -1.97213
    endloop
  endfacet
  facet normal 0 1 0
    outer loop
      vertex -154 27 -25
      vertex -157.284 27 -1.97213
      vertex -154 27 10
    endloop
  endfacet
  facet normal 0 1 0
    outer loop
      vertex -157.284 27 1.97213
      vertex -154 27 10
      vertex -157 27 -5.9952e-15
    endloop
  endfacet
  facet normal 0 1 0
    outer loop
      vertex -158.111 27 3.78449
      vertex -154 27 10
      vertex -157.284 27 1.97213
    endloop
  endfacet
  facet normal 0 1 0
    outer loop
      vertex -170.716 27 1.97213
      vertex -174 27 10
      vertex -169.889 27 3.78449
    endloop
  endfacet
  facet normal 0 1 0
    outer loop
      vertex -164.996 27 6.92875
      vertex -174 27 10
      vertex -163.004 27 6.92875
    endloop
  endfacet
  facet normal 0 1 0
    outer loop
      vertex -166.908 27 6.36742
      vertex -174 27 10
      vertex -164.996 27 6.92875
    endloop
  endfacet
  facet normal 0 1 0
    outer loop
      vertex -158.111 27 3.78449
      vertex -159.416 27 5.29025
      vertex -154 27 10
    endloop
  endfacet
  facet normal 0 1 0
    outer loop
      vertex -159.416 27 5.29025
      vertex -161.092 27 6.36742
      vertex -154 27 10
    endloop
  endfacet
  facet normal 0 1 0
    outer loop
      vertex -161.092 27 6.36742
      vertex -163.004 27 6.92875
      vertex -154 27 10
    endloop
  endfacet
  facet normal 0 1 0
    outer loop
      vertex -168.584 27 5.29025
      vertex -174 27 10
      vertex -166.908 27 6.36742
    endloop
  endfacet
  facet normal 0 1 0
    outer loop
      vertex -169.889 27 3.78449
      vertex -174 27 10
      vertex -168.584 27 5.29025
    endloop
  endfacet
  facet normal 0 1 0
    outer loop
      vertex -171 27 -5.9952e-15
      vertex -174 27 10
      vertex -170.716 27 1.97213
    endloop
  endfacet
  facet normal 0 1 0
    outer loop
      vertex -166.908 27 -6.36742
      vertex -154 27 -25
      vertex -168.584 27 -5.29025
    endloop
  endfacet
  facet normal 0 0 1
    outer loop
      vertex -174 27 10
      vertex -174 -27 10
      vertex -154 -27 10
    endloop
  endfacet
  facet normal 0 0 1
    outer loop
      vertex -154 27 10
      vertex -174 27 10
      vertex -154 -27 10
    endloop
  endfacet
  facet normal 1 0 0
    outer loop
      vertex -154 -18.1411 -21.5418
      vertex -154 -27 -25
      vertex -154 27 -25
    endloop
  endfacet
  facet normal 1 0 0
    outer loop
      vertex -154 23.7401 -16.5816
      vertex -154 23.9708 -18.4821
      vertex -154 27 -25
    endloop
  endfacet
  facet normal 1 0 0
    outer loop
      vertex -154 -20 -22
      vertex -154 -21.8589 -21.5418
      vertex -154 -27 -25
    endloop
  endfacet
  facet normal 1 0 0
    outer loop
      vertex -154 -27 10
      vertex -154 -27 -25
      vertex -154 -23.9708 -18.4821
    endloop
  endfacet
  facet normal 1 0 0
    outer loop
      vertex -154 -16.0292 -18.4821
      vertex -154 -16.7081 -20.2723
      vertex -154 27 -25
    endloop
  endfacet
  facet normal 1 0 0
    outer loop
      vertex -154 -27 10
      vertex -154 -23.9708 -18.4821
      vertex -154 -23.7401 -16.5816
    endloop
  endfacet
  facet normal 1 0 0
    outer loop
      vertex -154 -16.2599 -16.5816
      vertex -154 -16.0292 -18.4821
      vertex -154 27 -25
    endloop
  endfacet
  facet normal 1 0 0
    outer loop
      vertex -154 -27 10
      vertex -154 -23.7401 -16.5816
      vertex -154 -22.6525 -15.006
    endloop
  endfacet
  facet normal 1 0 0
    outer loop
      vertex -154 -17.3475 -15.006
      vertex -154 -16.2599 -16.5816
      vertex -154 27 -25
    endloop
  endfacet
  facet normal 1 0 0
    outer loop
      vertex -154 -27 10
      vertex -154 -22.6525 -15.006
      vertex -154 -20.9573 -14.1162
    endloop
  endfacet
  facet normal 1 0 0
    outer loop
      vertex -154 20 -22
      vertex -154 -19.0427 -14.1162
      vertex -154 27 -25
    endloop
  endfacet
  facet normal 1 0 0
    outer loop
      vertex -154 -27 10
      vertex -154 -20.9573 -14.1162
      vertex -154 -19.0427 -14.1162
    endloop
  endfacet
  facet normal 1 0 0
    outer loop
      vertex -154 -16.7081 -20.2723
      vertex -154 -18.1411 -21.5418
      vertex -154 27 -25
    endloop
  endfacet
  facet normal 1 0 0
    outer loop
      vertex -154 -20 -22
      vertex -154 -27 -25
      vertex -154 -18.1411 -21.5418
    endloop
  endfacet
  facet normal 1 0 0
    outer loop
      vertex -154 -23.2919 -20.2723
      vertex -154 -27 -25
      vertex -154 -21.8589 -21.5418
    endloop
  endfacet
  facet normal 1 0 0
    outer loop
      vertex -154 -23.9708 -18.4821
      vertex -154 -27 -25
      vertex -154 -23.2919 -20.2723
    endloop
  endfacet
  facet normal 1 0 0
    outer loop
      vertex -154 23.9708 -18.4821
      vertex -154 23.2919 -20.2723
      vertex -154 27 -25
    endloop
  endfacet
  facet normal 1 0 0
    outer loop
      vertex -154 -27 10
      vertex -154 -19.0427 -14.1162
      vertex -154 16.0292 -18.4821
    endloop
  endfacet
  facet normal 1 0 0
    outer loop
      vertex -154 21.8589 -21.5418
      vertex -154 20 -22
      vertex -154 27 -25
    endloop
  endfacet
  facet normal 1 0 0
    outer loop
      vertex -154 27 10
      vertex -154 -27 10
      vertex -154 16.2599 -16.5816
    endloop
  endfacet
  facet normal 1 0 0
    outer loop
      vertex -154 27 10
      vertex -154 16.2599 -16.5816
      vertex -154 17.3475 -15.006
    endloop
  endfacet
  facet normal 1 0 0
    outer loop
      vertex -154 27 10
      vertex -154 17.3475 -15.006
      vertex -154 19.0427 -14.1162
    endloop
  endfacet
  facet normal 1 0 0
    outer loop
      vertex -154 23.2919 -20.2723
      vertex -154 21.8589 -21.5418
      vertex -154 27 -25
    endloop
  endfacet
  facet normal 1 0 0
    outer loop
      vertex -154 27 10
      vertex -154 19.0427 -14.1162
      vertex -154 20.9573 -14.1162
    endloop
  endfacet
  facet normal 1 0 0
    outer loop
      vertex -154 27 10
      vertex -154 20.9573 -14.1162
      vertex -154 22.6525 -15.006
    endloop
  endfacet
  facet normal 1 0 0
    outer loop
      vertex -154 27 10
      vertex -154 23.7401 -16.5816
      vertex -154 27 -25
    endloop
  endfacet
  facet normal 1 0 0
    outer loop
      vertex -154 27 10
      vertex -154 22.6525 -15.006
      vertex -154 23.7401 -16.5816
    endloop
  endfacet
  facet normal 1 0 0
    outer loop
      vertex -154 18.1411 -21.5418
      vertex -154 -19.0427 -14.1162
      vertex -154 20 -22
    endloop
  endfacet
  facet normal 1 0 0
    outer loop
      vertex -154 16.7081 -20.2723
      vertex -154 -19.0427 -14.1162
      vertex -154 18.1411 -21.5418
    endloop
  endfacet
  facet normal 1 0 0
    outer loop
      vertex -154 16.0292 -18.4821
      vertex -154 -19.0427 -14.1162
      vertex -154 16.7081 -20.2723
    endloop
  endfacet
  facet normal 1 0 0
    outer loop
      vertex -154 -19.0427 -14.1162
      vertex -154 -17.3475 -15.006
      vertex -154 27 -25
    endloop
  endfacet
  facet normal 1 0 0
    outer loop
      vertex -154 16.0292 -18.4821
      vertex -154 16.2599 -16.5816
      vertex -154 -27 10
    endloop
  endfacet
  facet normal 0.989821 3.16002e-17 0.142315
    outer loop
      vertex -170.716 -27 -1.97213
      vertex -170.716 27 -1.97213
      vertex -171 27 -5.9952e-15
    endloop
  endfacet
  facet normal 0.989821 3.16002e-17 0.142315
    outer loop
      vertex -171 -27 5.9952e-15
      vertex -170.716 -27 -1.97213
      vertex -171 27 -5.9952e-15
    endloop
  endfacet
  facet normal 0.909632 9.22406e-17 0.415415
    outer loop
      vertex -169.889 -27 -3.78449
      vertex -169.889 27 -3.78449
      vertex -170.716 27 -1.97213
    endloop
  endfacet
  facet normal 0.909632 9.22406e-17 0.415415
    outer loop
      vertex -170.716 -27 -1.97213
      vertex -169.889 -27 -3.78449
      vertex -170.716 27 -1.97213
    endloop
  endfacet
  facet normal 0.755749 1.45408e-16 0.654861
    outer loop
      vertex -168.584 -27 -5.29025
      vertex -168.584 27 -5.29025
      vertex -169.889 27 -3.78449
    endloop
  endfacet
  facet normal 0.755749 1.45408e-16 0.654861
    outer loop
      vertex -169.889 -27 -3.78449
      vertex -168.584 -27 -5.29025
      vertex -169.889 27 -3.78449
    endloop
  endfacet
  facet normal 0.540641 1.86796e-16 0.841254
    outer loop
      vertex -166.908 -27 -6.36742
      vertex -166.908 27 -6.36742
      vertex -168.584 27 -5.29025
    endloop
  endfacet
  facet normal 0.540641 1.86796e-16 0.841254
    outer loop
      vertex -168.584 -27 -5.29025
      vertex -166.908 -27 -6.36742
      vertex -168.584 27 -5.29025
    endloop
  endfacet
  facet normal 0.281733 2.1305e-16 0.959493
    outer loop
      vertex -164.996 -27 -6.92875
      vertex -164.996 27 -6.92875
      vertex -166.908 27 -6.36742
    endloop
  endfacet
  facet normal 0.281733 2.1305e-16 0.959493
    outer loop
      vertex -166.908 -27 -6.36742
      vertex -164.996 -27 -6.92875
      vertex -166.908 27 -6.36742
    endloop
  endfacet
  facet normal 0 2.22045e-16 1
    outer loop
      vertex -163.004 -27 -6.92875
      vertex -163.004 27 -6.92875
      vertex -164.996 27 -6.92875
    endloop
  endfacet
  facet normal 0 2.22045e-16 1
    outer loop
      vertex -164.996 -27 -6.92875
      vertex -163.004 -27 -6.92875
      vertex -164.996 27 -6.92875
    endloop
  endfacet
  facet normal -0.281733 2.1305e-16 0.959493
    outer loop
      vertex -161.092 -27 -6.36742
      vertex -161.092 27 -6.36742
      vertex -163.004 27 -6.92875
    endloop
  endfacet
  facet normal -0.281733 2.1305e-16 0.959493
    outer loop
      vertex -163.004 -27 -6.92875
      vertex -161.092 -27 -6.36742
      vertex -163.004 27 -6.92875
    endloop
  endfacet
  facet normal -0.540641 1.86796e-16 0.841254
    outer loop
      vertex -159.416 -27 -5.29025
      vertex -159.416 27 -5.29025
      vertex -161.092 27 -6.36742
    endloop
  endfacet
  facet normal -0.540641 1.86796e-16 0.841254
    outer loop
      vertex -161.092 -27 -6.36742
      vertex -159.416 -27 -5.29025
      vertex -161.092 27 -6.36742
    endloop
  endfacet
  facet normal -0.755749 1.45408e-16 0.654861
    outer loop
      vertex -158.111 27 -3.78449
      vertex -159.416 27 -5.29025
      vertex -158.111 -27 -3.78449
    endloop
  endfacet
  facet normal -0.755749 1.45408e-16 0.654861
    outer loop
      vertex -158.111 -27 -3.78449
      vertex -159.416 27 -5.29025
      vertex -159.416 -27 -5.29025
    endloop
  endfacet
  facet normal -0.909632 9.22406e-17 0.415415
    outer loop
      vertex -157.284 27 -1.97213
      vertex -158.111 27 -3.78449
      vertex -157.284 -27 -1.97213
    endloop
  endfacet
  facet normal -0.909632 9.22406e-17 0.415415
    outer loop
      vertex -157.284 -27 -1.97213
      vertex -158.111 27 -3.78449
      vertex -158.111 -27 -3.78449
    endloop
  endfacet
  facet normal -0.989821 3.16002e-17 0.142315
    outer loop
      vertex -157 27 -5.9952e-15
      vertex -157.284 27 -1.97213
      vertex -157 -27 5.9952e-15
    endloop
  endfacet
  facet normal -0.989821 3.16002e-17 0.142315
    outer loop
      vertex -157 -27 5.9952e-15
      vertex -157.284 27 -1.97213
      vertex -157.284 -27 -1.97213
    endloop
  endfacet
  facet normal -0.989821 -3.16002e-17 -0.142315
    outer loop
      vertex -157 27 -5.9952e-15
      vertex -157 -27 5.9952e-15
      vertex -157.284 27 1.97213
    endloop
  endfacet
  facet normal -0.989821 -3.16002e-17 -0.142315
    outer loop
      vertex -157.284 27 1.97213
      vertex -157 -27 5.9952e-15
      vertex -157.284 -27 1.97213
    endloop
  endfacet
  facet normal -0.909632 -9.22406e-17 -0.415415
    outer loop
      vertex -157.284 27 1.97213
      vertex -157.284 -27 1.97213
      vertex -158.111 27 3.78449
    endloop
  endfacet
  facet normal -0.909632 -9.22406e-17 -0.415415
    outer loop
      vertex -158.111 27 3.78449
      vertex -157.284 -27 1.97213
      vertex -158.111 -27 3.78449
    endloop
  endfacet
  facet normal -0.755749 -1.45408e-16 -0.654861
    outer loop
      vertex -158.111 27 3.78449
      vertex -158.111 -27 3.78449
      vertex -159.416 27 5.29025
    endloop
  endfacet
  facet normal -0.755749 -1.45408e-16 -0.654861
    outer loop
      vertex -159.416 27 5.29025
      vertex -158.111 -27 3.78449
      vertex -159.416 -27 5.29025
    endloop
  endfacet
  facet normal -0.540641 -1.86796e-16 -0.841254
    outer loop
      vertex -159.416 27 5.29025
      vertex -159.416 -27 5.29025
      vertex -161.092 27 6.36742
    endloop
  endfacet
  facet normal -0.540641 -1.86796e-16 -0.841254
    outer loop
      vertex -161.092 27 6.36742
      vertex -159.416 -27 5.29025
      vertex -161.092 -27 6.36742
    endloop
  endfacet
  facet normal -0.281733 -2.1305e-16 -0.959493
    outer loop
      vertex -161.092 27 6.36742
      vertex -161.092 -27 6.36742
      vertex -163.004 27 6.92875
    endloop
  endfacet
  facet normal -0.281733 -2.1305e-16 -0.959493
    outer loop
      vertex -163.004 27 6.92875
      vertex -161.092 -27 6.36742
      vertex -163.004 -27 6.92875
    endloop
  endfacet
  facet normal 0 -2.22045e-16 -1
    outer loop
      vertex -163.004 27 6.92875
      vertex -163.004 -27 6.92875
      vertex -164.996 27 6.92875
    endloop
  endfacet
  facet normal 0 -2.22045e-16 -1
    outer loop
      vertex -164.996 27 6.92875
      vertex -163.004 -27 6.92875
      vertex -164.996 -27 6.92875
    endloop
  endfacet
  facet normal 0.281733 -2.1305e-16 -0.959493
    outer loop
      vertex -164.996 27 6.92875
      vertex -164.996 -27 6.92875
      vertex -166.908 27 6.36742
    endloop
  endfacet
  facet normal 0.281733 -2.1305e-16 -0.959493
    outer loop
      vertex -166.908 27 6.36742
      vertex -164.996 -27 6.92875
      vertex -166.908 -27 6.36742
    endloop
  endfacet
  facet normal 0.540641 -1.86796e-16 -0.841254
    outer loop
      vertex -166.908 27 6.36742
      vertex -166.908 -27 6.36742
      vertex -168.584 27 5.29025
    endloop
  endfacet
  facet normal 0.540641 -1.86796e-16 -0.841254
    outer loop
      vertex -168.584 27 5.29025
      vertex -166.908 -27 6.36742
      vertex -168.584 -27 5.29025
    endloop
  endfacet
  facet normal 0.755749 -1.45408e-16 -0.654861
    outer loop
      vertex -169.889 27 3.78449
      vertex -168.584 27 5.29025
      vertex -168.584 -27 5.29025
    endloop
  endfacet
  facet normal 0.755749 -1.45408e-16 -0.654861
    outer loop
      vertex -169.889 -27 3.78449
      vertex -169.889 27 3.78449
      vertex -168.584 -27 5.29025
    endloop
  endfacet
  facet normal 0.909632 -9.22406e-17 -0.415415
    outer loop
      vertex -170.716 27 1.97213
      vertex -169.889 27 3.78449
      vertex -169.889 -27 3.78449
    endloop
  endfacet
  facet normal 0.909632 -9.22406e-17 -0.415415
    outer loop
      vertex -170.716 -27 1.97213
      vertex -170.716 27 1.97213
      vertex -169.889 -27 3.78449
    endloop
  endfacet
  facet normal 0.989821 -3.16002e-17 -0.142315
    outer loop
      vertex -171 27 -5.9952e-15
      vertex -170.716 27 1.97213
      vertex -170.716 -27 1.97213
    endloop
  endfacet
  facet normal 0.989821 -3.16002e-17 -0.142315
    outer loop
      vertex -171 -27 5.9952e-15
      vertex -171 27 -5.9952e-15
      vertex -170.716 -27 1.97213
    endloop
  endfacet
  facet normal -2.67644e-17 -0.992709 0.120536
    outer loop
      vertex -154 -23.7401 -16.5816
      vertex -154 -23.9708 -18.4821
      vertex 169 -23.9708 -18.4821
    endloop
  endfacet
  facet normal -2.67644e-17 -0.992709 0.120536
    outer loop
      vertex 169 -23.7401 -16.5816
      vertex -154 -23.7401 -16.5816
      vertex 169 -23.9708 -18.4821
    endloop
  endfacet
  facet normal 7.87381e-17 -0.935016 -0.354605
    outer loop
      vertex 169 -23.9708 -18.4821
      vertex -154 -23.9708 -18.4821
      vertex -154 -23.2919 -20.2723
    endloop
  endfacet
  facet normal 7.87381e-17 -0.935016 -0.354605
    outer loop
      vertex 169 -23.2919 -20.2723
      vertex 169 -23.9708 -18.4821
      vertex -154 -23.2919 -20.2723
    endloop
  endfacet
  facet normal 1.66203e-16 -0.663123 -0.748511
    outer loop
      vertex -154 -23.2919 -20.2723
      vertex -154 -21.8589 -21.5418
      vertex 169 -23.2919 -20.2723
    endloop
  endfacet
  facet normal 1.66203e-16 -0.663123 -0.748511
    outer loop
      vertex 169 -23.2919 -20.2723
      vertex -154 -21.8589 -21.5418
      vertex 169 -21.8589 -21.5418
    endloop
  endfacet
  facet normal 2.15592e-16 -0.239316 -0.970942
    outer loop
      vertex -154 -21.8589 -21.5418
      vertex -154 -20 -22
      vertex 169 -21.8589 -21.5418
    endloop
  endfacet
  facet normal 2.15592e-16 -0.239316 -0.970942
    outer loop
      vertex 169 -21.8589 -21.5418
      vertex -154 -20 -22
      vertex 169 -20 -22
    endloop
  endfacet
  facet normal 2.15592e-16 0.239316 -0.970942
    outer loop
      vertex -154 -20 -22
      vertex -154 -18.1411 -21.5418
      vertex 169 -20 -22
    endloop
  endfacet
  facet normal 2.15592e-16 0.239316 -0.970942
    outer loop
      vertex 169 -20 -22
      vertex -154 -18.1411 -21.5418
      vertex 169 -18.1411 -21.5418
    endloop
  endfacet
  facet normal 1.66203e-16 0.663123 -0.748511
    outer loop
      vertex -154 -18.1411 -21.5418
      vertex -154 -16.7081 -20.2723
      vertex 169 -18.1411 -21.5418
    endloop
  endfacet
  facet normal 1.66203e-16 0.663123 -0.748511
    outer loop
      vertex 169 -18.1411 -21.5418
      vertex -154 -16.7081 -20.2723
      vertex 169 -16.7081 -20.2723
    endloop
  endfacet
  facet normal 7.87381e-17 0.935016 -0.354605
    outer loop
      vertex -154 -16.7081 -20.2723
      vertex -154 -16.0292 -18.4821
      vertex 169 -16.7081 -20.2723
    endloop
  endfacet
  facet normal 7.87381e-17 0.935016 -0.354605
    outer loop
      vertex 169 -16.7081 -20.2723
      vertex -154 -16.0292 -18.4821
      vertex 169 -16.0292 -18.4821
    endloop
  endfacet
  facet normal -2.67644e-17 0.992709 0.120536
    outer loop
      vertex -154 -16.2599 -16.5816
      vertex 169 -16.2599 -16.5816
      vertex -154 -16.0292 -18.4821
    endloop
  endfacet
  facet normal -2.67644e-17 0.992709 0.120536
    outer loop
      vertex -154 -16.0292 -18.4821
      vertex 169 -16.2599 -16.5816
      vertex 169 -16.0292 -18.4821
    endloop
  endfacet
  facet normal -1.26136e-16 0.822984 0.568065
    outer loop
      vertex -154 -17.3475 -15.006
      vertex 169 -17.3475 -15.006
      vertex -154 -16.2599 -16.5816
    endloop
  endfacet
  facet normal -1.26136e-16 0.822984 0.568065
    outer loop
      vertex -154 -16.2599 -16.5816
      vertex 169 -17.3475 -15.006
      vertex 169 -16.2599 -16.5816
    endloop
  endfacet
  facet normal -1.96611e-16 0.464723 0.885456
    outer loop
      vertex -154 -17.3475 -15.006
      vertex -154 -19.0427 -14.1162
      vertex 169 -19.0427 -14.1162
    endloop
  endfacet
  facet normal -1.96611e-16 0.464723 0.885456
    outer loop
      vertex 169 -17.3475 -15.006
      vertex -154 -17.3475 -15.006
      vertex 169 -19.0427 -14.1162
    endloop
  endfacet
  facet normal -2.22045e-16 0 1
    outer loop
      vertex -154 -19.0427 -14.1162
      vertex -154 -20.9573 -14.1162
      vertex 169 -20.9573 -14.1162
    endloop
  endfacet
  facet normal -2.22045e-16 0 1
    outer loop
      vertex 169 -19.0427 -14.1162
      vertex -154 -19.0427 -14.1162
      vertex 169 -20.9573 -14.1162
    endloop
  endfacet
  facet normal -1.96611e-16 -0.464723 0.885456
    outer loop
      vertex -154 -20.9573 -14.1162
      vertex -154 -22.6525 -15.006
      vertex 169 -22.6525 -15.006
    endloop
  endfacet
  facet normal -1.96611e-16 -0.464723 0.885456
    outer loop
      vertex 169 -20.9573 -14.1162
      vertex -154 -20.9573 -14.1162
      vertex 169 -22.6525 -15.006
    endloop
  endfacet
  facet normal -1.26136e-16 -0.822984 0.568065
    outer loop
      vertex -154 -22.6525 -15.006
      vertex -154 -23.7401 -16.5816
      vertex 169 -23.7401 -16.5816
    endloop
  endfacet
  facet normal -1.26136e-16 -0.822984 0.568065
    outer loop
      vertex 169 -22.6525 -15.006
      vertex -154 -22.6525 -15.006
      vertex 169 -23.7401 -16.5816
    endloop
  endfacet
  facet normal -2.67644e-17 -0.992709 0.120536
    outer loop
      vertex -154 16.2599 -16.5816
      vertex -154 16.0292 -18.4821
      vertex 169 16.0292 -18.4821
    endloop
  endfacet
  facet normal -2.67644e-17 -0.992709 0.120536
    outer loop
      vertex 169 16.2599 -16.5816
      vertex -154 16.2599 -16.5816
      vertex 169 16.0292 -18.4821
    endloop
  endfacet
  facet normal 7.87381e-17 -0.935016 -0.354605
    outer loop
      vertex 169 16.0292 -18.4821
      vertex -154 16.0292 -18.4821
      vertex -154 16.7081 -20.2723
    endloop
  endfacet
  facet normal 7.87381e-17 -0.935016 -0.354605
    outer loop
      vertex 169 16.7081 -20.2723
      vertex 169 16.0292 -18.4821
      vertex -154 16.7081 -20.2723
    endloop
  endfacet
  facet normal 1.66203e-16 -0.663123 -0.748511
    outer loop
      vertex -154 16.7081 -20.2723
      vertex -154 18.1411 -21.5418
      vertex 169 16.7081 -20.2723
    endloop
  endfacet
  facet normal 1.66203e-16 -0.663123 -0.748511
    outer loop
      vertex 169 16.7081 -20.2723
      vertex -154 18.1411 -21.5418
      vertex 169 18.1411 -21.5418
    endloop
  endfacet
  facet normal 2.15592e-16 -0.239316 -0.970942
    outer loop
      vertex -154 18.1411 -21.5418
      vertex -154 20 -22
      vertex 169 18.1411 -21.5418
    endloop
  endfacet
  facet normal 2.15592e-16 -0.239316 -0.970942
    outer loop
      vertex 169 18.1411 -21.5418
      vertex -154 20 -22
      vertex 169 20 -22
    endloop
  endfacet
  facet normal 2.15592e-16 0.239316 -0.970942
    outer loop
      vertex -154 20 -22
      vertex -154 21.8589 -21.5418
      vertex 169 20 -22
    endloop
  endfacet
  facet normal 2.15592e-16 0.239316 -0.970942
    outer loop
      vertex 169 20 -22
      vertex -154 21.8589 -21.5418
      vertex 169 21.8589 -21.5418
    endloop
  endfacet
  facet normal 1.66203e-16 0.663123 -0.748511
    outer loop
      vertex -154 21.8589 -21.5418
      vertex -154 23.2919 -20.2723
      vertex 169 21.8589 -21.5418
    endloop
  endfacet
  facet normal 1.66203e-16 0.663123 -0.748511
    outer loop
      vertex 169 21.8589 -21.5418
      vertex -154 23.2919 -20.2723
      vertex 169 23.2919 -20.2723
    endloop
  endfacet
  facet normal 7.87381e-17 0.935016 -0.354605
    outer loop
      vertex -154 23.2919 -20.2723
      vertex -154 23.9708 -18.4821
      vertex 169 23.2919 -20.2723
    endloop
  endfacet
  facet normal 7.87381e-17 0.935016 -0.354605
    outer loop
      vertex 169 23.2919 -20.2723
      vertex -154 23.9708 -18.4821
      vertex 169 23.9708 -18.4821
    endloop
  endfacet
  facet normal -2.67644e-17 0.992709 0.120536
    outer loop
      vertex -154 23.7401 -16.5816
      vertex 169 23.7401 -16.5816
      vertex -154 23.9708 -18.4821
    endloop
  endfacet
  facet normal -2.67644e-17 0.992709 0.120536
    outer loop
      vertex -154 23.9708 -18.4821
      vertex 169 23.7401 -16.5816
      vertex 169 23.9708 -18.4821
    endloop
  endfacet
  facet normal -1.26136e-16 0.822984 0.568065
    outer loop
      vertex -154 22.6525 -15.006
      vertex 169 22.6525 -15.006
      vertex -154 23.7401 -16.5816
    endloop
  endfacet
  facet normal -1.26136e-16 0.822984 0.568065
    outer loop
      vertex -154 23.7401 -16.5816
      vertex 169 22.6525 -15.006
      vertex 169 23.7401 -16.5816
    endloop
  endfacet
  facet normal -1.96611e-16 0.464723 0.885456
    outer loop
      vertex -154 22.6525 -15.006
      vertex -154 20.9573 -14.1162
      vertex 169 20.9573 -14.1162
    endloop
  endfacet
  facet normal -1.96611e-16 0.464723 0.885456
    outer loop
      vertex 169 22.6525 -15.006
      vertex -154 22.6525 -15.006
      vertex 169 20.9573 -14.1162
    endloop
  endfacet
  facet normal -2.22045e-16 0 1
    outer loop
      vertex -154 20.9573 -14.1162
      vertex -154 19.0427 -14.1162
      vertex 169 19.0427 -14.1162
    endloop
  endfacet
  facet normal -2.22045e-16 0 1
    outer loop
      vertex 169 20.9573 -14.1162
      vertex -154 20.9573 -14.1162
      vertex 169 19.0427 -14.1162
    endloop
  endfacet
  facet normal -1.96611e-16 -0.464723 0.885456
    outer loop
      vertex -154 19.0427 -14.1162
      vertex -154 17.3475 -15.006
      vertex 169 17.3475 -15.006
    endloop
  endfacet
  facet normal -1.96611e-16 -0.464723 0.885456
    outer loop
      vertex 169 19.0427 -14.1162
      vertex -154 19.0427 -14.1162
      vertex 169 17.3475 -15.006
    endloop
  endfacet
  facet normal -1.26136e-16 -0.822984 0.568065
    outer loop
      vertex -154 17.3475 -15.006
      vertex -154 16.2599 -16.5816
      vertex 169 16.2599 -16.5816
    endloop
  endfacet
  facet normal -1.26136e-16 -0.822984 0.568065
    outer loop
      vertex 169 17.3475 -15.006
      vertex -154 17.3475 -15.006
      vertex 169 16.2599 -16.5816
    endloop
  endfacet
  facet normal 1 0 2.22045e-16
    outer loop
      vertex 169 -19.0427 -14.1162
      vertex 169 -20.9573 -14.1162
      vertex 169 -22.6525 -15.006
    endloop
  endfacet
  facet normal 1 0 2.22045e-16
    outer loop
      vertex 169 -23.9708 -18.4821
      vertex 169 -19.0427 -14.1162
      vertex 169 -23.7401 -16.5816
    endloop
  endfacet
  facet normal 1 0 2.22045e-16
    outer loop
      vertex 169 -23.7401 -16.5816
      vertex 169 -19.0427 -14.1162
      vertex 169 -22.6525 -15.006
    endloop
  endfacet
  facet normal 1 0 2.22045e-16
    outer loop
      vertex 169 -23.2919 -20.2723
      vertex 169 -19.0427 -14.1162
      vertex 169 -23.9708 -18.4821
    endloop
  endfacet
  facet normal 1 0 2.22045e-16
    outer loop
      vertex 169 -21.8589 -21.5418
      vertex 169 -19.0427 -14.1162
      vertex 169 -23.2919 -20.2723
    endloop
  endfacet
  facet normal 1 0 2.22045e-16
    outer loop
      vertex 169 -20 -22
      vertex 169 -19.0427 -14.1162
      vertex 169 -21.8589 -21.5418
    endloop
  endfacet
  facet normal 1 0 2.22045e-16
    outer loop
      vertex 169 -18.1411 -21.5418
      vertex 169 -19.0427 -14.1162
      vertex 169 -20 -22
    endloop
  endfacet
  facet normal 1 0 2.22045e-16
    outer loop
      vertex 169 -16.7081 -20.2723
      vertex 169 -19.0427 -14.1162
      vertex 169 -18.1411 -21.5418
    endloop
  endfacet
  facet normal 1 0 2.22045e-16
    outer loop
      vertex 169 -16.0292 -18.4821
      vertex 169 -19.0427 -14.1162
      vertex 169 -16.7081 -20.2723
    endloop
  endfacet
  facet normal 1 0 2.22045e-16
    outer loop
      vertex 169 -16.2599 -16.5816
      vertex 169 -19.0427 -14.1162
      vertex 169 -16.0292 -18.4821
    endloop
  endfacet
  facet normal 1 0 2.22045e-16
    outer loop
      vertex 169 -17.3475 -15.006
      vertex 169 -19.0427 -14.1162
      vertex 169 -16.2599 -16.5816
    endloop
  endfacet
  facet normal 1 0 2.22045e-16
    outer loop
      vertex 169 20.9573 -14.1162
      vertex 169 19.0427 -14.1162
      vertex 169 17.3475 -15.006
    endloop
  endfacet
  facet normal 1 0 2.22045e-16
    outer loop
      vertex 169 16.0292 -18.4821
      vertex 169 20.9573 -14.1162
      vertex 169 16.2599 -16.5816
    endloop
  endfacet
  facet normal 1 0 2.22045e-16
    outer loop
      vertex 169 16.2599 -16.5816
      vertex 169 20.9573 -14.1162
      vertex 169 17.3475 -15.006
    endloop
  endfacet
  facet normal 1 0 2.22045e-16
    outer loop
      vertex 169 16.7081 -20.2723
      vertex 169 20.9573 -14.1162
      vertex 169 16.0292 -18.4821
    endloop
  endfacet
  facet normal 1 0 2.22045e-16
    outer loop
      vertex 169 18.1411 -21.5418
      vertex 169 20.9573 -14.1162
      vertex 169 16.7081 -20.2723
    endloop
  endfacet
  facet normal 1 0 2.22045e-16
    outer loop
      vertex 169 20 -22
      vertex 169 20.9573 -14.1162
      vertex 169 18.1411 -21.5418
    endloop
  endfacet
  facet normal 1 0 2.22045e-16
    outer loop
      vertex 169 21.8589 -21.5418
      vertex 169 20.9573 -14.1162
      vertex 169 20 -22
    endloop
  endfacet
  facet normal 1 0 2.22045e-16
    outer loop
      vertex 169 23.2919 -20.2723
      vertex 169 20.9573 -14.1162
      vertex 169 21.8589 -21.5418
    endloop
  endfacet
  facet normal 1 0 2.22045e-16
    outer loop
      vertex 169 23.9708 -18.4821
      vertex 169 20.9573 -14.1162
      vertex 169 23.2919 -20.2723
    endloop
  endfacet
  facet normal 1 0 2.22045e-16
    outer loop
      vertex 169 23.7401 -16.5816
      vertex 169 20.9573 -14.1162
      vertex 169 23.9708 -18.4821
    endloop
  endfacet
  facet normal 1 0 2.22045e-16
    outer loop
      vertex 169 22.6525 -15.006
      vertex 169 20.9573 -14.1162
      vertex 169 23.7401 -16.5816
    endloop
  endfacet
  facet normal -1 0 0
    outer loop
      vertex -24.7 -28 -18
      vertex -24.7 -28 -4
      vertex -24.7 -26.9287 -18
    endloop
  endfacet
  facet normal -1 0 0
    outer loop
      vertex -24.7 -16.2155 -12.1112
      vertex -24.7 -28 -4
      vertex -24.7 28 -4
    endloop
  endfacet
  facet normal -1 0 0
    outer loop
      vertex -24.7 26.9287 -18
      vertex -24.7 28 -4
      vertex -24.7 28 -18
    endloop
  endfacet
  facet normal -1 0 0
    outer loop
      vertex -24.7 26.9287 -17.0038
      vertex -24.7 28 -4
      vertex -24.7 26.9287 -18
    endloop
  endfacet
  facet normal -1 0 0
    outer loop
      vertex -24.7 26.3674 -15.0921
      vertex -24.7 28 -4
      vertex -24.7 26.9287 -17.0038
    endloop
  endfacet
  facet normal -1 0 0
    outer loop
      vertex -24.7 25.2902 -13.416
      vertex -24.7 28 -4
      vertex -24.7 26.3674 -15.0921
    endloop
  endfacet
  facet normal -1 0 0
    outer loop
      vertex -24.7 23.7845 -12.1112
      vertex -24.7 28 -4
      vertex -24.7 25.2902 -13.416
    endloop
  endfacet
  facet normal -1 0 0
    outer loop
      vertex -24.7 21.9721 -11.2835
      vertex -24.7 28 -4
      vertex -24.7 23.7845 -12.1112
    endloop
  endfacet
  facet normal -1 0 0
    outer loop
      vertex -24.7 20 -11
      vertex -24.7 28 -4
      vertex -24.7 21.9721 -11.2835
    endloop
  endfacet
  facet normal -1 0 0
    outer loop
      vertex -24.7 18.0279 -11.2835
      vertex -24.7 28 -4
      vertex -24.7 20 -11
    endloop
  endfacet
  facet normal -1 0 0
    outer loop
      vertex -24.7 -13.6326 -15.0921
      vertex -24.7 28 -4
      vertex -24.7 18.0279 -11.2835
    endloop
  endfacet
  facet normal -1 0 0
    outer loop
      vertex -24.7 13.6326 -15.0921
      vertex -24.7 -13.0712 -17.0038
      vertex -24.7 14.7098 -13.416
    endloop
  endfacet
  facet normal -1 0 0
    outer loop
      vertex -24.7 -13.6326 -15.0921
      vertex -24.7 16.2155 -12.1112
      vertex -24.7 14.7098 -13.416
    endloop
  endfacet
  facet normal -1 0 0
    outer loop
      vertex -24.7 13.0712 -18
      vertex -24.7 -13.0712 -18
      vertex -24.7 13.0712 -17.0038
    endloop
  endfacet
  facet normal -1 0 0
    outer loop
      vertex -24.7 -13.6326 -15.0921
      vertex -24.7 14.7098 -13.416
      vertex -24.7 -13.0712 -17.0038
    endloop
  endfacet
  facet normal -1 0 0
    outer loop
      vertex -24.7 -13.0712 -17.0038
      vertex -24.7 13.6326 -15.0921
      vertex -24.7 13.0712 -17.0038
    endloop
  endfacet
  facet normal -1 0 0
    outer loop
      vertex -24.7 -13.0712 -17.0038
      vertex -24.7 13.0712 -17.0038
      vertex -24.7 -13.0712 -18
    endloop
  endfacet
  facet normal -1 0 0
    outer loop
      vertex -24.7 -13.6326 -15.0921
      vertex -24.7 18.0279 -11.2835
      vertex -24.7 16.2155 -12.1112
    endloop
  endfacet
  facet normal -1 0 0
    outer loop
      vertex -24.7 -14.7098 -13.416
      vertex -24.7 28 -4
      vertex -24.7 -13.6326 -15.0921
    endloop
  endfacet
  facet normal -1 0 0
    outer loop
      vertex -24.7 -18.0279 -11.2835
      vertex -24.7 -28 -4
      vertex -24.7 -16.2155 -12.1112
    endloop
  endfacet
  facet normal -1 0 0
    outer loop
      vertex -24.7 -14.7098 -13.416
      vertex -24.7 -16.2155 -12.1112
      vertex -24.7 28 -4
    endloop
  endfacet
  facet normal -1 0 0
    outer loop
      vertex -24.7 -20 -11
      vertex -24.7 -28 -4
      vertex -24.7 -18.0279 -11.2835
    endloop
  endfacet
  facet normal -1 0 0
    outer loop
      vertex -24.7 -21.9721 -11.2835
      vertex -24.7 -28 -4
      vertex -24.7 -20 -11
    endloop
  endfacet
  facet normal -1 0 0
    outer loop
      vertex -24.7 -23.7845 -12.1112
      vertex -24.7 -28 -4
      vertex -24.7 -21.9721 -11.2835
    endloop
  endfacet
  facet normal -1 0 0
    outer loop
      vertex -24.7 -25.2902 -13.416
      vertex -24.7 -28 -4
      vertex -24.7 -23.7845 -12.1112
    endloop
  endfacet
  facet normal -1 0 0
    outer loop
      vertex -24.7 -26.3674 -15.0921
      vertex -24.7 -28 -4
      vertex -24.7 -25.2902 -13.416
    endloop
  endfacet
  facet normal -1 0 0
    outer loop
      vertex -24.7 -26.9287 -17.0038
      vertex -24.7 -28 -4
      vertex -24.7 -26.3674 -15.0921
    endloop
  endfacet
  facet normal -1 0 0
    outer loop
      vertex -24.7 -26.9287 -18
      vertex -24.7 -28 -4
      vertex -24.7 -26.9287 -17.0038
    endloop
  endfacet
  facet normal 0 -1 0
    outer loop
      vertex -24.7 -28 -4
      vertex -24.7 -28 -18
      vertex 24.7 -28 -18
    endloop
  endfacet
  facet normal 0 -1 0
    outer loop
      vertex 24.7 -28 -4
      vertex -24.7 -28 -4
      vertex 24.7 -28 -18
    endloop
  endfacet
  facet normal 0 0 -1
    outer loop
      vertex -24.7 -28 -18
      vertex -24.7 -26.9287 -18
      vertex 24.7 -28 -18
    endloop
  endfacet
  facet normal 0 0 -1
    outer loop
      vertex 24.7 -28 -18
      vertex -24.7 -26.9287 -18
      vertex 24.7 -26.9287 -18
    endloop
  endfacet
  facet normal 0 1 0
    outer loop
      vertex 24.7 -26.9287 -17.0038
      vertex 24.7 -26.9287 -18
      vertex -24.7 -26.9287 -17.0038
    endloop
  endfacet
  facet normal 0 1 0
    outer loop
      vertex -24.7 -26.9287 -17.0038
      vertex 24.7 -26.9287 -18
      vertex -24.7 -26.9287 -18
    endloop
  endfacet
  facet normal 6.25572e-17 0.959493 -0.281733
    outer loop
      vertex 24.7 -26.3674 -15.0921
      vertex 24.7 -26.9287 -17.0038
      vertex -24.7 -26.3674 -15.0921
    endloop
  endfacet
  facet normal 6.25572e-17 0.959493 -0.281733
    outer loop
      vertex -24.7 -26.3674 -15.0921
      vertex 24.7 -26.9287 -17.0038
      vertex -24.7 -26.9287 -17.0038
    endloop
  endfacet
  facet normal 1.20046e-16 0.841254 -0.540641
    outer loop
      vertex 24.7 -25.2902 -13.416
      vertex 24.7 -26.3674 -15.0921
      vertex -24.7 -25.2902 -13.416
    endloop
  endfacet
  facet normal 1.20046e-16 0.841254 -0.540641
    outer loop
      vertex -24.7 -25.2902 -13.416
      vertex 24.7 -26.3674 -15.0921
      vertex -24.7 -26.3674 -15.0921
    endloop
  endfacet
  facet normal 1.6781e-16 0.654861 -0.755749
    outer loop
      vertex 24.7 -23.7845 -12.1112
      vertex 24.7 -25.2902 -13.416
      vertex -24.7 -23.7845 -12.1112
    endloop
  endfacet
  facet normal 1.6781e-16 0.654861 -0.755749
    outer loop
      vertex -24.7 -23.7845 -12.1112
      vertex 24.7 -25.2902 -13.416
      vertex -24.7 -25.2902 -13.416
    endloop
  endfacet
  facet normal 2.01979e-16 0.415415 -0.909632
    outer loop
      vertex 24.7 -21.9721 -11.2835
      vertex 24.7 -23.7845 -12.1112
      vertex -24.7 -21.9721 -11.2835
    endloop
  endfacet
  facet normal 2.01979e-16 0.415415 -0.909632
    outer loop
      vertex -24.7 -21.9721 -11.2835
      vertex 24.7 -23.7845 -12.1112
      vertex -24.7 -23.7845 -12.1112
    endloop
  endfacet
  facet normal 2.19785e-16 0.142315 -0.989821
    outer loop
      vertex 24.7 -20 -11
      vertex 24.7 -21.9721 -11.2835
      vertex -24.7 -20 -11
    endloop
  endfacet
  facet normal 2.19785e-16 0.142315 -0.989821
    outer loop
      vertex -24.7 -20 -11
      vertex 24.7 -21.9721 -11.2835
      vertex -24.7 -21.9721 -11.2835
    endloop
  endfacet
  facet normal 2.19785e-16 -0.142315 -0.989821
    outer loop
      vertex 24.7 -18.0279 -11.2835
      vertex 24.7 -20 -11
      vertex -24.7 -18.0279 -11.2835
    endloop
  endfacet
  facet normal 2.19785e-16 -0.142315 -0.989821
    outer loop
      vertex -24.7 -18.0279 -11.2835
      vertex 24.7 -20 -11
      vertex -24.7 -20 -11
    endloop
  endfacet
  facet normal 2.01979e-16 -0.415415 -0.909632
    outer loop
      vertex 24.7 -16.2155 -12.1112
      vertex 24.7 -18.0279 -11.2835
      vertex -24.7 -16.2155 -12.1112
    endloop
  endfacet
  facet normal 2.01979e-16 -0.415415 -0.909632
    outer loop
      vertex -24.7 -16.2155 -12.1112
      vertex 24.7 -18.0279 -11.2835
      vertex -24.7 -18.0279 -11.2835
    endloop
  endfacet
  facet normal 1.6781e-16 -0.654861 -0.755749
    outer loop
      vertex 24.7 -14.7098 -13.416
      vertex 24.7 -16.2155 -12.1112
      vertex -24.7 -14.7098 -13.416
    endloop
  endfacet
  facet normal 1.6781e-16 -0.654861 -0.755749
    outer loop
      vertex -24.7 -14.7098 -13.416
      vertex 24.7 -16.2155 -12.1112
      vertex -24.7 -16.2155 -12.1112
    endloop
  endfacet
  facet normal 1.20046e-16 -0.841254 -0.540641
    outer loop
      vertex -24.7 -13.6326 -15.0921
      vertex 24.7 -13.6326 -15.0921
      vertex 24.7 -14.7098 -13.416
    endloop
  endfacet
  facet normal 1.20046e-16 -0.841254 -0.540641
    outer loop
      vertex -24.7 -14.7098 -13.416
      vertex -24.7 -13.6326 -15.0921
      vertex 24.7 -14.7098 -13.416
    endloop
  endfacet
  facet normal 6.25572e-17 -0.959493 -0.281733
    outer loop
      vertex -24.7 -13.0712 -17.0038
      vertex 24.7 -13.0712 -17.0038
      vertex 24.7 -13.6326 -15.0921
    endloop
  endfacet
  facet normal 6.25572e-17 -0.959493 -0.281733
    outer loop
      vertex -24.7 -13.6326 -15.0921
      vertex -24.7 -13.0712 -17.0038
      vertex 24.7 -13.6326 -15.0921
    endloop
  endfacet
  facet normal 0 -1 0
    outer loop
      vertex 24.7 -13.0712 -18
      vertex 24.7 -13.0712 -17.0038
      vertex -24.7 -13.0712 -17.0038
    endloop
  endfacet
  facet normal 0 -1 0
    outer loop
      vertex -24.7 -13.0712 -18
      vertex 24.7 -13.0712 -18
      vertex -24.7 -13.0712 -17.0038
    endloop
  endfacet
  facet normal 0 0 -1
    outer loop
      vertex -24.7 -13.0712 -18
      vertex -24.7 13.0712 -18
      vertex 24.7 -13.0712 -18
    endloop
  endfacet
  facet normal 0 0 -1
    outer loop
      vertex 24.7 -13.0712 -18
      vertex -24.7 13.0712 -18
      vertex 24.7 13.0712 -18
    endloop
  endfacet
  facet normal 0 1 0
    outer loop
      vertex 24.7 13.0712 -17.0038
      vertex 24.7 13.0712 -18
      vertex -24.7 13.0712 -17.0038
    endloop
  endfacet
  facet normal 0 1 0
    outer loop
      vertex -24.7 13.0712 -17.0038
      vertex 24.7 13.0712 -18
      vertex -24.7 13.0712 -18
    endloop
  endfacet
  facet normal 6.25572e-17 0.959493 -0.281733
    outer loop
      vertex 24.7 13.6326 -15.0921
      vertex 24.7 13.0712 -17.0038
      vertex -24.7 13.6326 -15.0921
    endloop
  endfacet
  facet normal 6.25572e-17 0.959493 -0.281733
    outer loop
      vertex -24.7 13.6326 -15.0921
      vertex 24.7 13.0712 -17.0038
      vertex -24.7 13.0712 -17.0038
    endloop
  endfacet
  facet normal 1.20046e-16 0.841254 -0.540641
    outer loop
      vertex 24.7 14.7098 -13.416
      vertex 24.7 13.6326 -15.0921
      vertex -24.7 14.7098 -13.416
    endloop
  endfacet
  facet normal 1.20046e-16 0.841254 -0.540641
    outer loop
      vertex -24.7 14.7098 -13.416
      vertex 24.7 13.6326 -15.0921
      vertex -24.7 13.6326 -15.0921
    endloop
  endfacet
  facet normal 1.6781e-16 0.654861 -0.755749
    outer loop
      vertex 24.7 16.2155 -12.1112
      vertex 24.7 14.7098 -13.416
      vertex -24.7 16.2155 -12.1112
    endloop
  endfacet
  facet normal 1.6781e-16 0.654861 -0.755749
    outer loop
      vertex -24.7 16.2155 -12.1112
      vertex 24.7 14.7098 -13.416
      vertex -24.7 14.7098 -13.416
    endloop
  endfacet
  facet normal 2.01979e-16 0.415415 -0.909632
    outer loop
      vertex 24.7 18.0279 -11.2835
      vertex 24.7 16.2155 -12.1112
      vertex -24.7 18.0279 -11.2835
    endloop
  endfacet
  facet normal 2.01979e-16 0.415415 -0.909632
    outer loop
      vertex -24.7 18.0279 -11.2835
      vertex 24.7 16.2155 -12.1112
      vertex -24.7 16.2155 -12.1112
    endloop
  endfacet
  facet normal 2.19785e-16 0.142315 -0.989821
    outer loop
      vertex 24.7 20 -11
      vertex 24.7 18.0279 -11.2835
      vertex -24.7 20 -11
    endloop
  endfacet
  facet normal 2.19785e-16 0.142315 -0.989821
    outer loop
      vertex -24.7 20 -11
      vertex 24.7 18.0279 -11.2835
      vertex -24.7 18.0279 -11.2835
    endloop
  endfacet
  facet normal 2.19785e-16 -0.142315 -0.989821
    outer loop
      vertex 24.7 21.9721 -11.2835
      vertex 24.7 20 -11
      vertex -24.7 21.9721 -11.2835
    endloop
  endfacet
  facet normal 2.19785e-16 -0.142315 -0.989821
    outer loop
      vertex -24.7 21.9721 -11.2835
      vertex 24.7 20 -11
      vertex -24.7 20 -11
    endloop
  endfacet
  facet normal 2.01979e-16 -0.415415 -0.909632
    outer loop
      vertex 24.7 23.7845 -12.1112
      vertex 24.7 21.9721 -11.2835
      vertex -24.7 23.7845 -12.1112
    endloop
  endfacet
  facet normal 2.01979e-16 -0.415415 -0.909632
    outer loop
      vertex -24.7 23.7845 -12.1112
      vertex 24.7 21.9721 -11.2835
      vertex -24.7 21.9721 -11.2835
    endloop
  endfacet
  facet normal 1.6781e-16 -0.654861 -0.755749
    outer loop
      vertex 24.7 25.2902 -13.416
      vertex 24.7 23.7845 -12.1112
      vertex -24.7 25.2902 -13.416
    endloop
  endfacet
  facet normal 1.6781e-16 -0.654861 -0.755749
    outer loop
      vertex -24.7 25.2902 -13.416
      vertex 24.7 23.7845 -12.1112
      vertex -24.7 23.7845 -12.1112
    endloop
  endfacet
  facet normal 1.20046e-16 -0.841254 -0.540641
    outer loop
      vertex -24.7 26.3674 -15.0921
      vertex 24.7 26.3674 -15.0921
      vertex 24.7 25.2902 -13.416
    endloop
  endfacet
  facet normal 1.20046e-16 -0.841254 -0.540641
    outer loop
      vertex -24.7 25.2902 -13.416
      vertex -24.7 26.3674 -15.0921
      vertex 24.7 25.2902 -13.416
    endloop
  endfacet
  facet normal 6.25572e-17 -0.959493 -0.281733
    outer loop
      vertex -24.7 26.9287 -17.0038
      vertex 24.7 26.9287 -17.0038
      vertex 24.7 26.3674 -15.0921
    endloop
  endfacet
  facet normal 6.25572e-17 -0.959493 -0.281733
    outer loop
      vertex -24.7 26.3674 -15.0921
      vertex -24.7 26.9287 -17.0038
      vertex 24.7 26.3674 -15.0921
    endloop
  endfacet
  facet normal 0 -1 0
    outer loop
      vertex 24.7 26.9287 -18
      vertex 24.7 26.9287 -17.0038
      vertex -24.7 26.9287 -17.0038
    endloop
  endfacet
  facet normal 0 -1 0
    outer loop
      vertex -24.7 26.9287 -18
      vertex 24.7 26.9287 -18
      vertex -24.7 26.9287 -17.0038
    endloop
  endfacet
  facet normal 0 0 -1
    outer loop
      vertex -24.7 26.9287 -18
      vertex -24.7 28 -18
      vertex 24.7 26.9287 -18
    endloop
  endfacet
  facet normal 0 0 -1
    outer loop
      vertex 24.7 26.9287 -18
      vertex -24.7 28 -18
      vertex 24.7 28 -18
    endloop
  endfacet
  facet normal 0 1 0
    outer loop
      vertex -24.7 28 -18
      vertex -24.7 28 -4
      vertex 24.7 28 -18
    endloop
  endfacet
  facet normal 0 1 0
    outer loop
      vertex 24.7 28 -18
      vertex -24.7 28 -4
      vertex 24.7 28 -4
    endloop
  endfacet
  facet normal 0 0 1
    outer loop
      vertex -24.7 28 -4
      vertex -24.7 -28 -4
      vertex 24.7 -28 -4
    endloop
  endfacet
  facet normal 0 0 1
    outer loop
      vertex 24.7 28 -4
      vertex -24.7 28 -4
      vertex 24.7 -28 -4
    endloop
  endfacet
  facet normal 1 0 0
    outer loop
      vertex 24.7 -28 -4
      vertex 24.7 -28 -18
      vertex 24.7 -26.9287 -18
    endloop
  endfacet
  facet normal 1 0 0
    outer loop
      vertex 24.7 -26.3674 -15.0921
      vertex 24.7 -28 -4
      vertex 24.7 -26.9287 -17.0038
    endloop
  endfacet
  facet normal 1 0 0
    outer loop
      vertex 24.7 -26.9287 -17.0038
      vertex 24.7 -28 -4
      vertex 24.7 -26.9287 -18
    endloop
  endfacet
  facet normal 1 0 0
    outer loop
      vertex 24.7 -25.2902 -13.416
      vertex 24.7 -28 -4
      vertex 24.7 -26.3674 -15.0921
    endloop
  endfacet
  facet normal 1 0 0
    outer loop
      vertex 24.7 -23.7845 -12.1112
      vertex 24.7 -28 -4
      vertex 24.7 -25.2902 -13.416
    endloop
  endfacet
  facet normal 1 0 0
    outer loop
      vertex 24.7 -21.9721 -11.2835
      vertex 24.7 -28 -4
      vertex 24.7 -23.7845 -12.1112
    endloop
  endfacet
  facet normal 1 0 0
    outer loop
      vertex 24.7 -20 -11
      vertex 24.7 -28 -4
      vertex 24.7 -21.9721 -11.2835
    endloop
  endfacet
  facet normal 1 0 0
    outer loop
      vertex 24.7 -18.0279 -11.2835
      vertex 24.7 -28 -4
      vertex 24.7 -20 -11
    endloop
  endfacet
  facet normal 1 0 0
    outer loop
      vertex 24.7 -16.2155 -12.1112
      vertex 24.7 -28 -4
      vertex 24.7 -18.0279 -11.2835
    endloop
  endfacet
  facet normal 1 0 0
    outer loop
      vertex 24.7 13.0712 -18
      vertex 24.7 -28 -4
      vertex 24.7 -16.2155 -12.1112
    endloop
  endfacet
  facet normal 1 0 0
    outer loop
      vertex 24.7 13.0712 -18
      vertex 24.7 -16.2155 -12.1112
      vertex 24.7 -14.7098 -13.416
    endloop
  endfacet
  facet normal 1 0 0
    outer loop
      vertex 24.7 13.0712 -18
      vertex 24.7 -14.7098 -13.416
      vertex 24.7 -13.6326 -15.0921
    endloop
  endfacet
  facet normal 1 0 0
    outer loop
      vertex 24.7 13.0712 -18
      vertex 24.7 -13.6326 -15.0921
      vertex 24.7 -13.0712 -17.0038
    endloop
  endfacet
  facet normal 1 0 0
    outer loop
      vertex 24.7 13.0712 -18
      vertex 24.7 -13.0712 -17.0038
      vertex 24.7 -13.0712 -18
    endloop
  endfacet
  facet normal 1 0 0
    outer loop
      vertex 24.7 13.0712 -17.0038
      vertex 24.7 -28 -4
      vertex 24.7 13.0712 -18
    endloop
  endfacet
  facet normal 1 0 0
    outer loop
      vertex 24.7 13.6326 -15.0921
      vertex 24.7 -28 -4
      vertex 24.7 13.0712 -17.0038
    endloop
  endfacet
  facet normal 1 0 0
    outer loop
      vertex 24.7 14.7098 -13.416
      vertex 24.7 -28 -4
      vertex 24.7 13.6326 -15.0921
    endloop
  endfacet
  facet normal 1 0 0
    outer loop
      vertex 24.7 16.2155 -12.1112
      vertex 24.7 -28 -4
      vertex 24.7 14.7098 -13.416
    endloop
  endfacet
  facet normal 1 0 0
    outer loop
      vertex 24.7 18.0279 -11.2835
      vertex 24.7 -28 -4
      vertex 24.7 16.2155 -12.1112
    endloop
  endfacet
  facet normal 1 0 0
    outer loop
      vertex 24.7 20 -11
      vertex 24.7 -28 -4
      vertex 24.7 18.0279 -11.2835
    endloop
  endfacet
  facet normal 1 0 0
    outer loop
      vertex 24.7 21.9721 -11.2835
      vertex 24.7 -28 -4
      vertex 24.7 20 -11
    endloop
  endfacet
  facet normal 1 0 0
    outer loop
      vertex 24.7 28 -4
      vertex 24.7 -28 -4
      vertex 24.7 21.9721 -11.2835
    endloop
  endfacet
  facet normal 1 0 0
    outer loop
      vertex 24.7 28 -4
      vertex 24.7 21.9721 -11.2835
      vertex 24.7 23.7845 -12.1112
    endloop
  endfacet
  facet normal 1 0 0
    outer loop
      vertex 24.7 28 -4
      vertex 24.7 23.7845 -12.1112
      vertex 24.7 25.2902 -13.416
    endloop
  endfacet
  facet normal 1 0 0
    outer loop
      vertex 24.7 28 -4
      vertex 24.7 25.2902 -13.416
      vertex 24.7 26.3674 -15.0921
    endloop
  endfacet
  facet normal 1 0 0
    outer loop
      vertex 24.7 28 -18
      vertex 24.7 26.3674 -15.0921
      vertex 24.7 26.9287 -17.0038
    endloop
  endfacet
  facet normal 1 0 0
    outer loop
      vertex 24.7 28 -18
      vertex 24.7 26.9287 -17.0038
      vertex 24.7 26.9287 -18
    endloop
  endfacet
  facet normal 1 0 0
    outer loop
      vertex 24.7 28 -4
      vertex 24.7 26.3674 -15.0921
      vertex 24.7 28 -18
    endloop
  endfacet
endsolid OpenSCAD_Model
