solid OpenSCAD_Model
  facet normal 1 0 -2.22045e-16
    outer loop
      vertex 14 -10 -15.25
      vertex 14 -10 -15.35
      vertex 14 10 -15.35
    endloop
  endfacet
  facet normal 1 0 -2.22045e-16
    outer loop
      vertex 14 4.46997 1.45238
      vertex 14 -10 -15.25
      vertex 14 10 -15.25
    endloop
  endfacet
  facet normal 1 0 -2.22045e-16
    outer loop
      vertex 14 10 -15.25
      vertex 14 -10 -15.25
      vertex 14 10 -15.35
    endloop
  endfacet
  facet normal 1 0 -2.22045e-16
    outer loop
      vertex 14 1.13137 -1.13137
      vertex 14 -10 -15.25
      vertex 14 4.46997 1.45238
    endloop
  endfacet
  facet normal 1 0 -2.22045e-16
    outer loop
      vertex 14 -1.13137 1.13137
      vertex 14 0 1.6
      vertex 14 1.91166 4.29366
    endloop
  endfacet
  facet normal 1 0 -2.22045e-16
    outer loop
      vertex 14 -1.91166 4.29366
      vertex 14 -10 -15.25
      vertex 14 0 4.7
    endloop
  endfacet
  facet normal 1 0 -2.22045e-16
    outer loop
      vertex 14 -3.49278 3.14491
      vertex 14 -10 -15.25
      vertex 14 -1.91166 4.29366
    endloop
  endfacet
  facet normal 1 0 -2.22045e-16
    outer loop
      vertex 14 -4.46997 1.45238
      vertex 14 -10 -15.25
      vertex 14 -3.49278 3.14491
    endloop
  endfacet
  facet normal 1 0 -2.22045e-16
    outer loop
      vertex 14 -1.13137 -1.13137
      vertex 14 -10 -15.25
      vertex 14 0 -1.6
    endloop
  endfacet
  facet normal 1 0 -2.22045e-16
    outer loop
      vertex 14 1.13137 1.13137
      vertex 14 1.6 -3.10862e-15
      vertex 14 3.49278 3.14491
    endloop
  endfacet
  facet normal 1 0 -2.22045e-16
    outer loop
      vertex 14 0 1.6
      vertex 14 1.13137 1.13137
      vertex 14 1.91166 4.29366
    endloop
  endfacet
  facet normal 1 0 -2.22045e-16
    outer loop
      vertex 14 0 4.7
      vertex 14 -10 -15.25
      vertex 14 -1.6 -3.10862e-15
    endloop
  endfacet
  facet normal 1 0 -2.22045e-16
    outer loop
      vertex 14 0 4.7
      vertex 14 -1.13137 1.13137
      vertex 14 1.91166 4.29366
    endloop
  endfacet
  facet normal 1 0 -2.22045e-16
    outer loop
      vertex 14 0 4.7
      vertex 14 -1.6 -3.10862e-15
      vertex 14 -1.13137 1.13137
    endloop
  endfacet
  facet normal 1 0 -2.22045e-16
    outer loop
      vertex 14 1.91166 4.29366
      vertex 14 1.13137 1.13137
      vertex 14 3.49278 3.14491
    endloop
  endfacet
  facet normal 1 0 -2.22045e-16
    outer loop
      vertex 14 3.49278 3.14491
      vertex 14 1.6 -3.10862e-15
      vertex 14 4.46997 1.45238
    endloop
  endfacet
  facet normal 1 0 -2.22045e-16
    outer loop
      vertex 14 1.6 -3.10862e-15
      vertex 14 1.13137 -1.13137
      vertex 14 4.46997 1.45238
    endloop
  endfacet
  facet normal 1 0 -2.22045e-16
    outer loop
      vertex 14 -1.13137 -1.13137
      vertex 14 -1.6 -3.10862e-15
      vertex 14 -10 -15.25
    endloop
  endfacet
  facet normal 1 0 -2.22045e-16
    outer loop
      vertex 14 1.13137 -1.13137
      vertex 14 0 -1.6
      vertex 14 -10 -15.25
    endloop
  endfacet
  facet normal -2.22045e-16 0 -1
    outer loop
      vertex 14 -10 -15.35
      vertex -14 -10 -15.35
      vertex 14 10 -15.35
    endloop
  endfacet
  facet normal -2.22045e-16 0 -1
    outer loop
      vertex 14 10 -15.35
      vertex -14 -10 -15.35
      vertex -14 10 -15.35
    endloop
  endfacet
  facet normal 0 -1 0
    outer loop
      vertex -14 -10 -15.35
      vertex 14 -10 -15.35
      vertex 14 -10 -15.25
    endloop
  endfacet
  facet normal 0 -1 0
    outer loop
      vertex -14 -10 -15.25
      vertex -14 -10 -15.35
      vertex 14 -10 -15.25
    endloop
  endfacet
  facet normal 6.97914e-17 -0.94932 0.314313
    outer loop
      vertex 8.35 -7.51681 -7.75
      vertex 14 -10 -15.25
      vertex 14 -4.46997 1.45238
    endloop
  endfacet
  facet normal 6.97914e-17 -0.94932 0.314313
    outer loop
      vertex 8.35 -7.51681 -7.75
      vertex -8.35 -7.51681 -7.75
      vertex -14 -10 -15.25
    endloop
  endfacet
  facet normal 6.97914e-17 -0.94932 0.314313
    outer loop
      vertex -14 -10 -15.25
      vertex 14 -10 -15.25
      vertex 8.35 -7.51681 -7.75
    endloop
  endfacet
  facet normal 6.97914e-17 -0.94932 0.314313
    outer loop
      vertex -8.35 -4.46997 1.45238
      vertex -14 -10 -15.25
      vertex -8.35 -7.51681 -7.75
    endloop
  endfacet
  facet normal 6.97914e-17 -0.94932 0.314313
    outer loop
      vertex -14 -4.46997 1.45238
      vertex -14 -10 -15.25
      vertex -8.35 -4.46997 1.45238
    endloop
  endfacet
  facet normal 6.97914e-17 -0.94932 0.314313
    outer loop
      vertex 8.35 -4.46997 1.45238
      vertex 8.35 -7.51681 -7.75
      vertex 14 -4.46997 1.45238
    endloop
  endfacet
  facet normal 1.11022e-16 -0.866025 0.5
    outer loop
      vertex 8.35 -4.46997 1.45238
      vertex 14 -4.46997 1.45238
      vertex 14 -3.49278 3.14491
    endloop
  endfacet
  facet normal 1.11022e-16 -0.866025 0.5
    outer loop
      vertex 8.35 -3.49278 3.14491
      vertex 8.35 -4.46997 1.45238
      vertex 14 -3.49278 3.14491
    endloop
  endfacet
  facet normal 1.79638e-16 -0.587785 0.809017
    outer loop
      vertex 8.35 -3.49278 3.14491
      vertex 14 -3.49278 3.14491
      vertex 14 -1.91166 4.29366
    endloop
  endfacet
  facet normal 1.79638e-16 -0.587785 0.809017
    outer loop
      vertex 8.35 -1.91166 4.29366
      vertex 8.35 -3.49278 3.14491
      vertex 14 -1.91166 4.29366
    endloop
  endfacet
  facet normal 2.17192e-16 -0.207912 0.978148
    outer loop
      vertex 8.35 -1.91166 4.29366
      vertex 14 -1.91166 4.29366
      vertex 14 0 4.7
    endloop
  endfacet
  facet normal 2.17192e-16 -0.207912 0.978148
    outer loop
      vertex 8.35 0 4.7
      vertex 8.35 -1.91166 4.29366
      vertex 14 0 4.7
    endloop
  endfacet
  facet normal 2.17192e-16 0.207912 0.978148
    outer loop
      vertex 14 0 4.7
      vertex 14 1.91166 4.29366
      vertex 8.35 1.91166 4.29366
    endloop
  endfacet
  facet normal 2.17192e-16 0.207912 0.978148
    outer loop
      vertex 8.35 0 4.7
      vertex 14 0 4.7
      vertex 8.35 1.91166 4.29366
    endloop
  endfacet
  facet normal 1.79638e-16 0.587785 0.809017
    outer loop
      vertex 14 1.91166 4.29366
      vertex 14 3.49278 3.14491
      vertex 8.35 3.49278 3.14491
    endloop
  endfacet
  facet normal 1.79638e-16 0.587785 0.809017
    outer loop
      vertex 8.35 1.91166 4.29366
      vertex 14 1.91166 4.29366
      vertex 8.35 3.49278 3.14491
    endloop
  endfacet
  facet normal 1.11022e-16 0.866025 0.5
    outer loop
      vertex 14 4.46997 1.45238
      vertex 8.35 4.46997 1.45238
      vertex 14 3.49278 3.14491
    endloop
  endfacet
  facet normal 1.11022e-16 0.866025 0.5
    outer loop
      vertex 14 3.49278 3.14491
      vertex 8.35 4.46997 1.45238
      vertex 8.35 3.49278 3.14491
    endloop
  endfacet
  facet normal 6.97914e-17 0.94932 0.314313
    outer loop
      vertex 8.35 4.46997 1.45238
      vertex 14 4.46997 1.45238
      vertex 8.35 7.51681 -7.75
    endloop
  endfacet
  facet normal 6.97914e-17 0.94932 0.314313
    outer loop
      vertex -8.35 4.46997 1.45238
      vertex -14 10 -15.25
      vertex -14 4.46997 1.45238
    endloop
  endfacet
  facet normal 6.97914e-17 0.94932 0.314313
    outer loop
      vertex -8.35 7.51681 -7.75
      vertex -14 10 -15.25
      vertex -8.35 4.46997 1.45238
    endloop
  endfacet
  facet normal 6.97914e-17 0.94932 0.314313
    outer loop
      vertex 14 10 -15.25
      vertex -14 10 -15.25
      vertex 8.35 7.51681 -7.75
    endloop
  endfacet
  facet normal 6.97914e-17 0.94932 0.314313
    outer loop
      vertex 14 10 -15.25
      vertex 8.35 7.51681 -7.75
      vertex 14 4.46997 1.45238
    endloop
  endfacet
  facet normal 6.97914e-17 0.94932 0.314313
    outer loop
      vertex 8.35 7.51681 -7.75
      vertex -14 10 -15.25
      vertex -8.35 7.51681 -7.75
    endloop
  endfacet
  facet normal 0 1 0
    outer loop
      vertex 14 10 -15.35
      vertex -14 10 -15.35
      vertex 14 10 -15.25
    endloop
  endfacet
  facet normal 0 1 0
    outer loop
      vertex 14 10 -15.25
      vertex -14 10 -15.35
      vertex -14 10 -15.25
    endloop
  endfacet
  facet normal 2.05142e-16 -0.382683 0.92388
    outer loop
      vertex 14 1.13137 -1.13137
      vertex 8.35 1.13137 -1.13137
      vertex 8.35 0 -1.6
    endloop
  endfacet
  facet normal 2.05142e-16 -0.382683 0.92388
    outer loop
      vertex 14 0 -1.6
      vertex 14 1.13137 -1.13137
      vertex 8.35 0 -1.6
    endloop
  endfacet
  facet normal 2.05142e-16 0.382683 0.92388
    outer loop
      vertex 8.35 0 -1.6
      vertex 8.35 -1.13137 -1.13137
      vertex 14 -1.13137 -1.13137
    endloop
  endfacet
  facet normal 2.05142e-16 0.382683 0.92388
    outer loop
      vertex 14 0 -1.6
      vertex 8.35 0 -1.6
      vertex 14 -1.13137 -1.13137
    endloop
  endfacet
  facet normal 8.49728e-17 -0.92388 0.382683
    outer loop
      vertex 14 1.6 -3.10862e-15
      vertex 8.35 1.6 -1.85407e-15
      vertex 8.35 1.13137 -1.13137
    endloop
  endfacet
  facet normal 8.49728e-17 -0.92388 0.382683
    outer loop
      vertex 14 1.13137 -1.13137
      vertex 14 1.6 -3.10862e-15
      vertex 8.35 1.13137 -1.13137
    endloop
  endfacet
  facet normal -8.49728e-17 -0.92388 -0.382683
    outer loop
      vertex 14 1.13137 1.13137
      vertex 8.35 1.13137 1.13137
      vertex 8.35 1.6 -1.85407e-15
    endloop
  endfacet
  facet normal -8.49728e-17 -0.92388 -0.382683
    outer loop
      vertex 14 1.6 -3.10862e-15
      vertex 14 1.13137 1.13137
      vertex 8.35 1.6 -1.85407e-15
    endloop
  endfacet
  facet normal -2.05142e-16 -0.382683 -0.92388
    outer loop
      vertex 8.35 0 1.6
      vertex 8.35 1.13137 1.13137
      vertex 14 0 1.6
    endloop
  endfacet
  facet normal -2.05142e-16 -0.382683 -0.92388
    outer loop
      vertex 14 0 1.6
      vertex 8.35 1.13137 1.13137
      vertex 14 1.13137 1.13137
    endloop
  endfacet
  facet normal -2.05142e-16 0.382683 -0.92388
    outer loop
      vertex 8.35 0 1.6
      vertex 14 0 1.6
      vertex 8.35 -1.13137 1.13137
    endloop
  endfacet
  facet normal -2.05142e-16 0.382683 -0.92388
    outer loop
      vertex 8.35 -1.13137 1.13137
      vertex 14 0 1.6
      vertex 14 -1.13137 1.13137
    endloop
  endfacet
  facet normal -8.49728e-17 0.92388 -0.382683
    outer loop
      vertex 8.35 -1.13137 1.13137
      vertex 14 -1.13137 1.13137
      vertex 8.35 -1.6 -1.85407e-15
    endloop
  endfacet
  facet normal -8.49728e-17 0.92388 -0.382683
    outer loop
      vertex 8.35 -1.6 -1.85407e-15
      vertex 14 -1.13137 1.13137
      vertex 14 -1.6 -3.10862e-15
    endloop
  endfacet
  facet normal 8.49728e-17 0.92388 0.382683
    outer loop
      vertex 8.35 -1.6 -1.85407e-15
      vertex 14 -1.6 -3.10862e-15
      vertex 8.35 -1.13137 -1.13137
    endloop
  endfacet
  facet normal 8.49728e-17 0.92388 0.382683
    outer loop
      vertex 8.35 -1.13137 -1.13137
      vertex 14 -1.6 -3.10862e-15
      vertex 14 -1.13137 -1.13137
    endloop
  endfacet
  facet normal -1 0 2.22045e-16
    outer loop
      vertex -14 -10 -15.35
      vertex -14 -10 -15.25
      vertex -14 10 -15.35
    endloop
  endfacet
  facet normal -1 0 2.22045e-16
    outer loop
      vertex -14 10 -15.35
      vertex -14 -10 -15.25
      vertex -14 -4.46997 1.45238
    endloop
  endfacet
  facet normal -1 0 2.22045e-16
    outer loop
      vertex -14 -1.13137 -1.13137
      vertex -14 -4.46997 1.45238
      vertex -14 -3.49278 3.14491
    endloop
  endfacet
  facet normal -1 0 2.22045e-16
    outer loop
      vertex -14 -1.13137 1.13137
      vertex -14 -3.49278 3.14491
      vertex -14 -1.91166 4.29366
    endloop
  endfacet
  facet normal -1 0 2.22045e-16
    outer loop
      vertex -14 1.13137 1.13137
      vertex -14 -1.91166 4.29366
      vertex -14 0 4.7
    endloop
  endfacet
  facet normal -1 0 2.22045e-16
    outer loop
      vertex -14 10 -15.35
      vertex -14 0 4.7
      vertex -14 1.91166 4.29366
    endloop
  endfacet
  facet normal -1 0 2.22045e-16
    outer loop
      vertex -14 10 -15.35
      vertex -14 1.91166 4.29366
      vertex -14 3.49278 3.14491
    endloop
  endfacet
  facet normal -1 0 2.22045e-16
    outer loop
      vertex -14 10 -15.35
      vertex -14 3.49278 3.14491
      vertex -14 4.46997 1.45238
    endloop
  endfacet
  facet normal -1 0 2.22045e-16
    outer loop
      vertex -14 10 -15.35
      vertex -14 4.46997 1.45238
      vertex -14 10 -15.25
    endloop
  endfacet
  facet normal -1 0 2.22045e-16
    outer loop
      vertex -14 10 -15.35
      vertex -14 -4.46997 1.45238
      vertex -14 -1.13137 -1.13137
    endloop
  endfacet
  facet normal -1 0 2.22045e-16
    outer loop
      vertex -14 -1.6 3.10862e-15
      vertex -14 -1.13137 -1.13137
      vertex -14 -3.49278 3.14491
    endloop
  endfacet
  facet normal -1 0 2.22045e-16
    outer loop
      vertex -14 1.6 3.10862e-15
      vertex -14 10 -15.35
      vertex -14 1.13137 -1.13137
    endloop
  endfacet
  facet normal -1 0 2.22045e-16
    outer loop
      vertex -14 10 -15.35
      vertex -14 0 -1.6
      vertex -14 1.13137 -1.13137
    endloop
  endfacet
  facet normal -1 0 2.22045e-16
    outer loop
      vertex -14 -1.13137 1.13137
      vertex -14 -1.91166 4.29366
      vertex -14 0 1.6
    endloop
  endfacet
  facet normal -1 0 2.22045e-16
    outer loop
      vertex -14 10 -15.35
      vertex -14 1.6 3.10862e-15
      vertex -14 0 4.7
    endloop
  endfacet
  facet normal -1 0 2.22045e-16
    outer loop
      vertex -14 1.6 3.10862e-15
      vertex -14 1.13137 1.13137
      vertex -14 0 4.7
    endloop
  endfacet
  facet normal -1 0 2.22045e-16
    outer loop
      vertex -14 0 1.6
      vertex -14 -1.91166 4.29366
      vertex -14 1.13137 1.13137
    endloop
  endfacet
  facet normal -1 0 2.22045e-16
    outer loop
      vertex -14 -1.6 3.10862e-15
      vertex -14 -3.49278 3.14491
      vertex -14 -1.13137 1.13137
    endloop
  endfacet
  facet normal -1 0 2.22045e-16
    outer loop
      vertex -14 0 -1.6
      vertex -14 10 -15.35
      vertex -14 -1.13137 -1.13137
    endloop
  endfacet
  facet normal 1.11022e-16 -0.866025 0.5
    outer loop
      vertex -14 -4.46997 1.45238
      vertex -8.35 -4.46997 1.45238
      vertex -8.35 -3.49278 3.14491
    endloop
  endfacet
  facet normal 1.11022e-16 -0.866025 0.5
    outer loop
      vertex -14 -3.49278 3.14491
      vertex -14 -4.46997 1.45238
      vertex -8.35 -3.49278 3.14491
    endloop
  endfacet
  facet normal 1 0 -2.22045e-16
    outer loop
      vertex -8.35 7.51681 -7.75
      vertex -8.35 4.46997 1.45238
      vertex -8.35 3.49278 3.14491
    endloop
  endfacet
  facet normal 1 0 -2.22045e-16
    outer loop
      vertex -8.35 0 4.7
      vertex -8.35 7.51681 -7.75
      vertex -8.35 1.91166 4.29366
    endloop
  endfacet
  facet normal 1 0 -2.22045e-16
    outer loop
      vertex -8.35 1.91166 4.29366
      vertex -8.35 7.51681 -7.75
      vertex -8.35 3.49278 3.14491
    endloop
  endfacet
  facet normal 1 0 -2.22045e-16
    outer loop
      vertex -8.35 1.13137 1.13137
      vertex -8.35 7.51681 -7.75
      vertex -8.35 0 4.7
    endloop
  endfacet
  facet normal 1 0 -2.22045e-16
    outer loop
      vertex -8.35 1.13137 -1.13137
      vertex -8.35 0 -1.6
      vertex -8.35 7.51681 -7.75
    endloop
  endfacet
  facet normal 1 0 -2.22045e-16
    outer loop
      vertex -8.35 -7.51681 -7.75
      vertex -8.35 -1.13137 -1.13137
      vertex -8.35 -4.46997 1.45238
    endloop
  endfacet
  facet normal 1 0 -2.22045e-16
    outer loop
      vertex -8.35 -7.51681 -7.75
      vertex -8.35 7.51681 -7.75
      vertex -8.35 -1.13137 -1.13137
    endloop
  endfacet
  facet normal 1 0 -2.22045e-16
    outer loop
      vertex -8.35 -4.46997 1.45238
      vertex -8.35 -1.6 1.85407e-15
      vertex -8.35 -3.49278 3.14491
    endloop
  endfacet
  facet normal 1 0 -2.22045e-16
    outer loop
      vertex -8.35 -3.49278 3.14491
      vertex -8.35 -1.13137 1.13137
      vertex -8.35 -1.91166 4.29366
    endloop
  endfacet
  facet normal 1 0 -2.22045e-16
    outer loop
      vertex -8.35 -1.13137 1.13137
      vertex -8.35 0 1.6
      vertex -8.35 -1.91166 4.29366
    endloop
  endfacet
  facet normal 1 0 -2.22045e-16
    outer loop
      vertex -8.35 -1.91166 4.29366
      vertex -8.35 1.13137 1.13137
      vertex -8.35 0 4.7
    endloop
  endfacet
  facet normal 1 0 -2.22045e-16
    outer loop
      vertex -8.35 1.6 1.85407e-15
      vertex -8.35 7.51681 -7.75
      vertex -8.35 1.13137 1.13137
    endloop
  endfacet
  facet normal 1 0 -2.22045e-16
    outer loop
      vertex -8.35 1.6 1.85407e-15
      vertex -8.35 1.13137 -1.13137
      vertex -8.35 7.51681 -7.75
    endloop
  endfacet
  facet normal 1 0 -2.22045e-16
    outer loop
      vertex -8.35 -1.13137 -1.13137
      vertex -8.35 -1.6 1.85407e-15
      vertex -8.35 -4.46997 1.45238
    endloop
  endfacet
  facet normal 1 0 -2.22045e-16
    outer loop
      vertex -8.35 -1.6 1.85407e-15
      vertex -8.35 -1.13137 1.13137
      vertex -8.35 -3.49278 3.14491
    endloop
  endfacet
  facet normal 1 0 -2.22045e-16
    outer loop
      vertex -8.35 0 -1.6
      vertex -8.35 -1.13137 -1.13137
      vertex -8.35 7.51681 -7.75
    endloop
  endfacet
  facet normal 1 0 -2.22045e-16
    outer loop
      vertex -8.35 0 1.6
      vertex -8.35 1.13137 1.13137
      vertex -8.35 -1.91166 4.29366
    endloop
  endfacet
  facet normal 2.22045e-16 0 1
    outer loop
      vertex 8.35 7.51681 -7.75
      vertex -8.35 7.51681 -7.75
      vertex -8.35 -7.51681 -7.75
    endloop
  endfacet
  facet normal 2.22045e-16 0 1
    outer loop
      vertex 8.35 -7.51681 -7.75
      vertex 8.35 7.51681 -7.75
      vertex -8.35 -7.51681 -7.75
    endloop
  endfacet
  facet normal -1 0 2.22045e-16
    outer loop
      vertex 8.35 -3.49278 3.14491
      vertex 8.35 -1.91166 4.29366
      vertex 8.35 -4.46997 1.45238
    endloop
  endfacet
  facet normal -1 0 2.22045e-16
    outer loop
      vertex 8.35 -4.46997 1.45238
      vertex 8.35 -1.91166 4.29366
      vertex 8.35 0 4.7
    endloop
  endfacet
  facet normal -1 0 2.22045e-16
    outer loop
      vertex 8.35 -4.46997 1.45238
      vertex 8.35 0 4.7
      vertex 8.35 1.91166 4.29366
    endloop
  endfacet
  facet normal -1 0 2.22045e-16
    outer loop
      vertex 8.35 -4.46997 1.45238
      vertex 8.35 1.91166 4.29366
      vertex 8.35 3.49278 3.14491
    endloop
  endfacet
  facet normal -1 0 2.22045e-16
    outer loop
      vertex 8.35 0 1.6
      vertex 8.35 3.49278 3.14491
      vertex 8.35 4.46997 1.45238
    endloop
  endfacet
  facet normal -1 0 2.22045e-16
    outer loop
      vertex 8.35 1.13137 -1.13137
      vertex 8.35 4.46997 1.45238
      vertex 8.35 7.51681 -7.75
    endloop
  endfacet
  facet normal -1 0 2.22045e-16
    outer loop
      vertex 8.35 -1.13137 -1.13137
      vertex 8.35 7.51681 -7.75
      vertex 8.35 -7.51681 -7.75
    endloop
  endfacet
  facet normal -1 0 2.22045e-16
    outer loop
      vertex 8.35 0 1.6
      vertex 8.35 4.46997 1.45238
      vertex 8.35 1.13137 1.13137
    endloop
  endfacet
  facet normal -1 0 2.22045e-16
    outer loop
      vertex 8.35 1.6 -1.85407e-15
      vertex 8.35 4.46997 1.45238
      vertex 8.35 1.13137 -1.13137
    endloop
  endfacet
  facet normal -1 0 2.22045e-16
    outer loop
      vertex 8.35 0 -1.6
      vertex 8.35 1.13137 -1.13137
      vertex 8.35 7.51681 -7.75
    endloop
  endfacet
  facet normal -1 0 2.22045e-16
    outer loop
      vertex 8.35 1.13137 1.13137
      vertex 8.35 4.46997 1.45238
      vertex 8.35 1.6 -1.85407e-15
    endloop
  endfacet
  facet normal -1 0 2.22045e-16
    outer loop
      vertex 8.35 -4.46997 1.45238
      vertex 8.35 3.49278 3.14491
      vertex 8.35 0 1.6
    endloop
  endfacet
  facet normal -1 0 2.22045e-16
    outer loop
      vertex 8.35 -1.13137 1.13137
      vertex 8.35 -4.46997 1.45238
      vertex 8.35 0 1.6
    endloop
  endfacet
  facet normal -1 0 2.22045e-16
    outer loop
      vertex 8.35 -1.6 -1.85407e-15
      vertex 8.35 -4.46997 1.45238
      vertex 8.35 -1.13137 1.13137
    endloop
  endfacet
  facet normal -1 0 2.22045e-16
    outer loop
      vertex 8.35 -1.13137 -1.13137
      vertex 8.35 -4.46997 1.45238
      vertex 8.35 -1.6 -1.85407e-15
    endloop
  endfacet
  facet normal -1 0 2.22045e-16
    outer loop
      vertex 8.35 -4.46997 1.45238
      vertex 8.35 -1.13137 -1.13137
      vertex 8.35 -7.51681 -7.75
    endloop
  endfacet
  facet normal -1 0 2.22045e-16
    outer loop
      vertex 8.35 0 -1.6
      vertex 8.35 7.51681 -7.75
      vertex 8.35 -1.13137 -1.13137
    endloop
  endfacet
  facet normal 1.11022e-16 0.866025 0.5
    outer loop
      vertex -8.35 4.46997 1.45238
      vertex -14 4.46997 1.45238
      vertex -8.35 3.49278 3.14491
    endloop
  endfacet
  facet normal 1.11022e-16 0.866025 0.5
    outer loop
      vertex -8.35 3.49278 3.14491
      vertex -14 4.46997 1.45238
      vertex -14 3.49278 3.14491
    endloop
  endfacet
  facet normal 1.79638e-16 0.587785 0.809017
    outer loop
      vertex -8.35 1.91166 4.29366
      vertex -8.35 3.49278 3.14491
      vertex -14 3.49278 3.14491
    endloop
  endfacet
  facet normal 1.79638e-16 0.587785 0.809017
    outer loop
      vertex -14 1.91166 4.29366
      vertex -8.35 1.91166 4.29366
      vertex -14 3.49278 3.14491
    endloop
  endfacet
  facet normal 2.17192e-16 0.207912 0.978148
    outer loop
      vertex -8.35 0 4.7
      vertex -8.35 1.91166 4.29366
      vertex -14 1.91166 4.29366
    endloop
  endfacet
  facet normal 2.17192e-16 0.207912 0.978148
    outer loop
      vertex -14 0 4.7
      vertex -8.35 0 4.7
      vertex -14 1.91166 4.29366
    endloop
  endfacet
  facet normal 2.17192e-16 -0.207912 0.978148
    outer loop
      vertex -14 -1.91166 4.29366
      vertex -8.35 -1.91166 4.29366
      vertex -8.35 0 4.7
    endloop
  endfacet
  facet normal 2.17192e-16 -0.207912 0.978148
    outer loop
      vertex -14 0 4.7
      vertex -14 -1.91166 4.29366
      vertex -8.35 0 4.7
    endloop
  endfacet
  facet normal 1.79638e-16 -0.587785 0.809017
    outer loop
      vertex -14 -3.49278 3.14491
      vertex -8.35 -3.49278 3.14491
      vertex -8.35 -1.91166 4.29366
    endloop
  endfacet
  facet normal 1.79638e-16 -0.587785 0.809017
    outer loop
      vertex -14 -1.91166 4.29366
      vertex -14 -3.49278 3.14491
      vertex -8.35 -1.91166 4.29366
    endloop
  endfacet
  facet normal 2.05142e-16 0.382683 0.92388
    outer loop
      vertex -14 0 -1.6
      vertex -14 -1.13137 -1.13137
      vertex -8.35 -1.13137 -1.13137
    endloop
  endfacet
  facet normal 2.05142e-16 0.382683 0.92388
    outer loop
      vertex -8.35 0 -1.6
      vertex -14 0 -1.6
      vertex -8.35 -1.13137 -1.13137
    endloop
  endfacet
  facet normal 8.49728e-17 0.92388 0.382683
    outer loop
      vertex -14 -1.6 3.10862e-15
      vertex -8.35 -1.6 1.85407e-15
      vertex -14 -1.13137 -1.13137
    endloop
  endfacet
  facet normal 8.49728e-17 0.92388 0.382683
    outer loop
      vertex -14 -1.13137 -1.13137
      vertex -8.35 -1.6 1.85407e-15
      vertex -8.35 -1.13137 -1.13137
    endloop
  endfacet
  facet normal -8.49728e-17 0.92388 -0.382683
    outer loop
      vertex -14 -1.13137 1.13137
      vertex -8.35 -1.13137 1.13137
      vertex -14 -1.6 3.10862e-15
    endloop
  endfacet
  facet normal -8.49728e-17 0.92388 -0.382683
    outer loop
      vertex -14 -1.6 3.10862e-15
      vertex -8.35 -1.13137 1.13137
      vertex -8.35 -1.6 1.85407e-15
    endloop
  endfacet
  facet normal -2.05142e-16 0.382683 -0.92388
    outer loop
      vertex -14 0 1.6
      vertex -8.35 0 1.6
      vertex -14 -1.13137 1.13137
    endloop
  endfacet
  facet normal -2.05142e-16 0.382683 -0.92388
    outer loop
      vertex -14 -1.13137 1.13137
      vertex -8.35 0 1.6
      vertex -8.35 -1.13137 1.13137
    endloop
  endfacet
  facet normal -2.05142e-16 -0.382683 -0.92388
    outer loop
      vertex -14 0 1.6
      vertex -14 1.13137 1.13137
      vertex -8.35 0 1.6
    endloop
  endfacet
  facet normal -2.05142e-16 -0.382683 -0.92388
    outer loop
      vertex -8.35 0 1.6
      vertex -14 1.13137 1.13137
      vertex -8.35 1.13137 1.13137
    endloop
  endfacet
  facet normal -8.49728e-17 -0.92388 -0.382683
    outer loop
      vertex -8.35 1.13137 1.13137
      vertex -14 1.13137 1.13137
      vertex -14 1.6 3.10862e-15
    endloop
  endfacet
  facet normal -8.49728e-17 -0.92388 -0.382683
    outer loop
      vertex -8.35 1.6 1.85407e-15
      vertex -8.35 1.13137 1.13137
      vertex -14 1.6 3.10862e-15
    endloop
  endfacet
  facet normal 8.49728e-17 -0.92388 0.382683
    outer loop
      vertex -8.35 1.6 1.85407e-15
      vertex -14 1.6 3.10862e-15
      vertex -14 1.13137 -1.13137
    endloop
  endfacet
  facet normal 8.49728e-17 -0.92388 0.382683
    outer loop
      vertex -8.35 1.13137 -1.13137
      vertex -8.35 1.6 1.85407e-15
      vertex -14 1.13137 -1.13137
    endloop
  endfacet
  facet normal 2.05142e-16 -0.382683 0.92388
    outer loop
      vertex -8.35 1.13137 -1.13137
      vertex -14 1.13137 -1.13137
      vertex -14 0 -1.6
    endloop
  endfacet
  facet normal 2.05142e-16 -0.382683 0.92388
    outer loop
      vertex -8.35 0 -1.6
      vertex -8.35 1.13137 -1.13137
      vertex -14 0 -1.6
    endloop
  endfacet
endsolid OpenSCAD_Model
